<?xml version="1.0" standalone="no"?>
<!DOCTYPE svg PUBLIC "-//W3C//DTD SVG 20010904//EN"
 "http://www.w3.org/TR/2001/REC-SVG-20010904/DTD/svg10.dtd">
<svg version="1.0" xmlns="http://www.w3.org/2000/svg"
 width="1024.000000pt" height="1024.000000pt" viewBox="0 0 1024.000000 1024.000000"
 preserveAspectRatio="xMidYMid meet">
<metadata>
Created by potrace 1.14, written by Peter Selinger 2001-2017
</metadata>
<g transform="translate(0.000000,1024.000000) scale(0.100000,-0.100000)"
fill="#000000" stroke="none">
<path d="M4770 10234 c-740 -63 -1357 -235 -1975 -549 -495 -252 -892 -541
-1296 -944 -838 -837 -1328 -1858 -1476 -3076 -26 -215 -26 -872 0 -1090 126
-1051 512 -1955 1177 -2756 135 -161 461 -488 620 -619 809 -671 1692 -1048
2755 -1177 215 -26 872 -26 1090 0 652 78 1223 249 1780 532 495 252 892 541
1296 944 838 837 1328 1858 1476 3076 26 215 26 872 0 1090 -78 652 -249 1223
-532 1780 -252 495 -541 892 -944 1296 -836 836 -1859 1328 -3071 1475 -128
15 -776 28 -900 18z m969 -1872 c63 -12 119 -26 125 -32 7 -7 13 -86 16 -205
4 -160 8 -197 21 -210 9 -9 58 -29 110 -44 52 -16 160 -49 242 -75 81 -25 155
-46 165 -46 18 0 107 119 193 258 27 43 45 62 59 62 26 0 191 -86 345 -180
135 -82 365 -258 510 -389 349 -318 654 -763 843 -1231 119 -296 204 -662 222
-963 35 -559 -20 -984 -187 -1447 -107 -299 -339 -716 -511 -918 -31 -37 -84
-101 -117 -142 -190 -240 -588 -561 -936 -754 -301 -168 -567 -261 -994 -349
-225 -47 -288 -52 -644 -49 -316 3 -344 5 -515 33 -301 49 -523 110 -731 199
-66 29 -152 64 -191 80 -39 15 -87 38 -105 52 -19 14 -81 51 -139 83 -280 153
-627 435 -837 680 -181 210 -373 476 -373 516 0 13 155 156 304 281 l28 24
-87 214 c-102 253 -136 330 -144 330 -3 0 -103 -7 -221 -15 -201 -13 -216 -13
-232 3 -22 22 -74 256 -96 430 -20 157 -24 150 91 178 133 31 322 85 329 92
11 11 47 512 40 556 l-7 38 -161 67 c-89 36 -184 74 -212 84 -27 9 -52 23 -55
30 -10 27 50 286 110 472 46 144 61 174 88 181 13 3 97 -10 187 -30 229 -49
236 -50 254 -35 9 7 35 51 59 99 39 77 153 286 201 366 l18 32 -94 103 c-52
57 -118 129 -148 160 -48 50 -53 60 -48 87 16 70 406 502 454 502 11 0 92 -53
179 -118 87 -66 165 -122 174 -125 19 -6 11 -12 268 181 140 106 191 149 191
165 0 11 -25 99 -56 195 -30 96 -53 180 -51 186 7 19 160 89 339 156 175 66
259 90 310 90 l34 0 94 -190 c53 -108 101 -192 111 -195 9 -3 113 12 230 34
118 22 230 43 249 46 83 15 78 11 85 73 3 31 13 100 21 153 8 53 14 116 14
141 0 25 3 48 8 52 4 4 108 6 232 3 169 -3 253 -10 339 -25z"/>
<path d="M5050 7799 c-692 -50 -1348 -373 -1827 -899 -405 -445 -638 -955
-719 -1575 -21 -154 -23 -477 -5 -635 57 -505 252 -1002 546 -1392 161 -214
363 -419 553 -563 94 -70 316 -205 454 -276 379 -193 827 -290 1268 -276 271
9 442 34 697 102 413 109 849 370 1189 709 172 173 249 266 376 456 227 341
372 740 434 1200 24 173 24 522 0 685 -68 470 -216 869 -460 1234 -121 182
-194 271 -346 422 -236 235 -457 393 -765 546 -394 197 -924 297 -1395 262z
m690 -692 c279 -62 520 -186 672 -345 134 -141 213 -296 260 -514 29 -139 32
-437 5 -571 -41 -204 -127 -406 -224 -528 -101 -127 -265 -250 -458 -344 -134
-66 -226 -96 -398 -131 -124 -26 -153 -28 -463 -32 -182 -2 -337 -8 -345 -13
-12 -7 -15 -139 -19 -821 l-5 -813 -534 -3 c-386 -1 -538 1 -547 9 -12 10 -14
342 -14 2054 0 1124 3 2051 6 2060 6 14 92 15 998 12 882 -3 999 -5 1066 -20z
m1504 -2208 c55 -20 98 -59 111 -100 6 -19 12 -20 47 -15 61 10 92 -23 43 -46
-23 -10 -23 -12 -10 -39 17 -32 19 -67 6 -102 -13 -34 -93 -47 -141 -22 -33
17 -71 17 -77 0 -2 -6 12 -16 30 -23 35 -13 82 -56 101 -94 10 -19 18 -22 52
-20 27 2 45 -2 53 -12 16 -19 6 -36 -20 -36 -12 0 -19 -3 -17 -7 2 -5 10 -20
17 -36 11 -20 12 -39 5 -75 l-9 -47 -65 2 c-36 1 -101 6 -145 12 -65 9 -101 8
-187 -5 -145 -22 -155 -19 -164 52 -4 37 -3 59 5 67 17 17 13 34 -10 40 -13 4
-19 12 -17 24 3 14 13 18 50 18 45 0 48 2 78 48 22 35 43 53 78 69 59 26 34
36 -44 18 -71 -17 -122 -7 -135 28 -11 28 -8 84 6 115 6 14 2 20 -14 24 -25 6
-28 40 -3 45 9 2 29 1 43 -3 32 -8 42 -3 62 36 22 44 59 75 108 90 62 19 100
18 163 -6z m-436 -52 c9 -6 12 -86 12 -342 0 -232 3 -336 11 -341 6 -3 156 -6
333 -5 255 2 325 -1 333 -11 7 -10 12 -371 4 -410 0 -5 -129 -8 -285 -8 -224
0 -286 -3 -295 -13 -7 -9 -12 -127 -13 -368 l-3 -354 -270 -3 c-148 -1 -280 0
-292 3 l-23 5 0 353 c0 261 -3 356 -12 365 -9 9 -97 12 -332 12 -177 0 -327 4
-334 8 -9 7 -12 56 -10 213 l3 204 285 3 c163 1 288 6 294 12 6 6 9 138 7 332
-1 178 2 328 6 334 5 6 14 13 21 15 24 8 547 4 560 -4z m-777 -1153 c60 -18
90 -40 125 -96 22 -35 25 -36 54 -26 23 7 34 7 45 -2 21 -18 19 -38 -6 -45
-15 -5 -18 -11 -13 -23 4 -10 9 -40 12 -68 6 -84 -27 -99 -150 -70 -42 10 -60
11 -65 3 -3 -6 -1 -13 5 -15 33 -11 98 -64 113 -94 16 -30 21 -33 66 -33 42 0
48 -3 51 -22 3 -18 -2 -23 -17 -23 -22 0 -29 -24 -11 -35 15 -9 12 -98 -4
-120 -12 -17 -21 -17 -107 -9 -85 8 -137 8 -364 1 l-70 -2 -14 44 c-12 38 -12
47 3 77 16 34 16 35 -9 44 -50 19 -16 55 42 46 37 -7 39 -6 62 38 22 44 75 86
107 86 15 0 19 16 5 24 -5 3 -32 -1 -60 -10 -29 -8 -71 -14 -94 -12 -40 3 -42
4 -55 51 -12 41 -11 51 3 79 16 32 9 47 -22 48 -18 0 -16 15 3 35 16 16 28 16
66 0 12 -5 25 7 51 47 27 43 44 58 78 70 84 31 100 33 170 12z"/>
<path d="M4893 6333 c-71 -3 -105 -8 -113 -18 -9 -10 -11 -123 -10 -425 0
-226 4 -418 7 -426 5 -15 27 -16 192 -11 216 6 266 15 378 68 168 80 253 214
253 396 0 211 -98 349 -282 397 -61 16 -267 25 -425 19z"/>
<path d="M7080 4883 c-29 -3 -41 -13 -67 -52 -18 -26 -33 -50 -33 -53 0 -3 23
1 51 9 52 15 226 14 277 -2 36 -12 27 14 -23 62 -44 42 -47 43 -108 41 -34 -1
-78 -3 -97 -5z"/>
<path d="M6907 4673 c-10 -3 -17 -12 -15 -21 4 -24 103 -30 111 -8 4 9 3 17
-1 20 -13 8 -77 14 -95 9z"/>
<path d="M7327 4672 c-11 -2 -17 -11 -15 -20 2 -13 16 -18 56 -20 47 -3 52 -1
52 17 0 12 -3 21 -7 22 -28 4 -71 5 -86 1z"/>
<path d="M7024 4496 c-47 -51 -55 -71 -26 -62 94 29 187 33 275 12 31 -7 60
-10 63 -5 3 5 0 9 -5 9 -6 0 -11 10 -11 23 0 37 -85 71 -179 72 l-73 0 -44
-49z"/>
<path d="M6893 4314 c-10 -28 32 -42 85 -28 13 4 22 14 22 25 0 16 -8 19 -50
19 -37 0 -52 -4 -57 -16z"/>
<path d="M7313 4314 c-8 -23 9 -30 61 -26 37 3 46 8 46 23 0 16 -8 19 -50 19
-37 0 -52 -4 -57 -16z"/>
<path d="M5826 3627 c-25 -29 -41 -53 -36 -55 6 -2 47 4 92 13 76 15 90 15
156 0 102 -21 101 -21 89 18 -15 48 -80 76 -180 75 l-77 0 -44 -51z"/>
<path d="M5700 3440 c0 -19 5 -21 53 -18 38 2 52 7 52 18 0 11 -14 16 -52 18
-48 3 -53 1 -53 -18z"/>
<path d="M6120 3441 c0 -19 6 -21 56 -21 47 0 55 3 52 18 -2 13 -15 18 -56 20
-47 3 -52 1 -52 -17z"/>
<path d="M5906 3332 c-3 -5 -21 -13 -40 -16 -28 -5 -40 -16 -60 -53 -14 -25
-26 -47 -26 -49 0 -2 19 4 42 12 70 24 174 29 246 10 78 -20 72 -20 72 4 0 11
-4 20 -9 20 -5 0 -12 9 -16 20 -4 13 -23 25 -58 34 -75 22 -144 30 -151 18z"/>
<path d="M5704 3105 c-9 -23 5 -35 44 -35 45 0 67 13 59 34 -8 21 -95 23 -103
1z"/>
<path d="M6124 3105 c-10 -25 9 -37 57 -33 36 2 44 7 44 23 0 17 -8 20 -48 23
-36 2 -49 -1 -53 -13z"/>
</g>
</svg>
