<svg width="253" height="44" viewBox="0 0 253 44" fill="none" xmlns="http://www.w3.org/2000/svg">
<path fill-rule="evenodd" clip-rule="evenodd" d="M22.2706 43.9782C21.1696 43.9702 20.3366 44.015 19.5106 43.9066C18.8516 43.8212 18.1975 43.691 17.5405 43.5856C16.7385 43.4574 15.9595 43.211 15.1815 42.9923C14.5714 42.8204 13.9724 42.557 13.3774 42.3086C13.0124 42.1565 12.6654 41.9309 12.2614 41.8604C12.1164 41.8355 11.9854 41.7083 11.8544 41.6169C11.3463 41.2621 10.7783 41.0216 10.2553 40.6906C9.5833 40.2663 8.94228 39.8002 8.31327 39.3162C7.85925 38.9664 7.41824 38.5967 6.99823 38.2001C6.63822 37.8612 6.25021 37.5512 5.9262 37.1735C5.63319 36.8316 5.32819 36.5017 5.04218 36.1529C4.49516 35.486 3.97215 34.8003 3.47213 34.0967C3.30513 33.8611 3.17213 33.5998 3.02912 33.3463C2.96212 33.2281 2.96012 33.1525 3.09612 33.0422C3.76914 32.4976 4.38016 31.8745 5.06418 31.3418C5.16418 31.2643 5.14618 31.1818 5.09818 31.0665C4.83217 30.4285 4.58917 29.7795 4.31916 29.1435C4.14515 28.733 3.99515 28.3117 3.80414 27.9062C3.70114 27.6875 3.56914 27.6985 3.44813 27.7342C3.03012 27.8575 2.60011 27.7501 2.1771 27.8406C1.81109 27.9191 1.42208 27.8734 1.04707 27.9201C0.743061 27.9588 0.639058 27.766 0.580056 27.5414C0.479053 27.1588 0.432052 26.7613 0.326049 26.3807C0.151044 25.7516 0.129044 25.0996 0.0200408 24.4606C-0.0409609 24.1028 0.027041 24.0005 0.36705 23.9071C1.14807 23.6924 1.94209 23.5294 2.71411 23.272C2.87012 23.2203 2.89412 23.1895 2.90312 23.0067C2.94712 22.1033 3.03812 21.2029 3.10212 20.3005C3.12113 20.0361 3.10512 19.7698 3.10612 19.5044C3.10612 19.4388 3.09612 19.4041 3.01712 19.3733C2.1841 19.0423 1.36608 18.6627 0.518054 18.3794C0.192045 18.2701 0.225046 18.0783 0.264047 17.8885C0.469053 16.8987 0.684059 15.9088 1.02707 14.9597C1.11307 14.7212 1.17907 14.4777 1.26407 14.2402C1.35808 13.9778 1.54808 13.8397 1.83009 13.8993C2.45611 14.0325 3.08312 14.1637 3.70614 14.3117C3.87215 14.3515 4.04115 14.3465 4.20816 14.4022C4.41416 14.4708 4.50616 14.2909 4.59017 14.1289C4.93918 13.4571 5.26318 12.7693 5.65419 12.1243C5.8142 11.86 5.9152 11.5599 6.11621 11.3174C6.21221 11.2011 6.22721 11.0719 6.08121 10.9407C5.54219 10.4587 5.11718 9.86143 4.58517 9.36849C4.22416 9.03358 4.25616 8.83978 4.56716 8.41642C5.03318 7.78137 5.56219 7.20495 6.08321 6.62357C6.42122 6.24592 6.81523 5.91995 7.19724 5.58702C7.36624 5.43894 7.51825 5.59 7.65125 5.68839C8.26327 6.14256 8.87328 6.6027 9.4793 7.06482C9.6223 7.17414 9.74031 7.18309 9.88731 7.06681C10.0853 6.90979 10.2753 6.73488 10.4803 6.59375C10.8713 6.32542 11.2443 6.03423 11.6204 5.74603C11.9044 5.52838 12.1944 5.32167 12.4784 5.10402C12.5844 5.02253 12.6404 4.93209 12.5864 4.77109C12.3564 4.08536 12.1524 3.38969 11.9204 2.70495C11.8364 2.4555 11.8724 2.31934 12.1274 2.22593C12.3884 2.13052 12.6304 1.98045 12.8874 1.87014C13.2154 1.72802 13.5474 1.59584 13.8804 1.46963C14.2554 1.32751 14.6384 1.20527 15.0125 1.05918C15.3985 0.908123 15.7965 0.816692 16.2035 0.767001C16.4435 0.737186 16.4655 0.987628 16.5345 1.11981C16.8775 1.77473 17.1925 2.44556 17.5135 3.1134C17.6105 3.31515 17.7545 3.35291 17.9595 3.31316C18.7486 3.16011 19.5386 3.01899 20.3296 2.87588C20.5976 2.82718 20.8566 2.73774 21.1346 2.73874C21.2156 2.73874 21.3226 2.69998 21.3286 2.54991C21.3576 1.732 21.5856 0.937937 21.5976 0.117044C21.5996 0.00673019 21.6896 0.0067302 21.7706 0.0067302C22.6937 0.00971165 23.6197 -0.0369978 24.5377 0.0802727C25.0427 0.144871 25.5457 0.250216 26.0508 0.324752C26.1928 0.345622 26.2518 0.457923 26.2708 0.616934C26.3558 1.31161 26.3368 2.00927 26.3208 2.70495C26.3138 3.03787 26.3928 3.19887 26.7368 3.28533C27.7318 3.53478 28.6928 3.91144 29.6869 4.17281C29.8179 4.2076 29.8649 4.21654 29.9489 4.09331C30.3489 3.51292 30.7809 2.95638 31.1149 2.32829C31.2459 2.08182 31.4579 2.05896 31.7399 2.19313C32.6289 2.61848 33.471 3.13427 34.307 3.65503C34.811 3.96809 35.259 4.37555 35.735 4.73631C36.576 5.37533 37.3581 6.09386 38.0791 6.86308C38.7691 7.5985 39.4091 8.39356 39.9991 9.22538C41.0622 10.7231 41.9232 12.338 42.5912 14.0553C42.8612 14.748 43.1042 15.4586 43.2802 16.196C43.4982 17.1103 43.7252 18.0207 43.8572 18.9509C44.0232 20.1236 43.9832 21.3082 43.9982 22.4899C44.0112 23.5036 43.9532 24.5133 43.7902 25.5061C43.6662 26.2604 43.5102 27.0157 43.3022 27.7571C43.1352 28.3534 42.9582 28.9477 42.7462 29.5261C42.4842 30.2387 42.2002 30.9443 41.8572 31.624C41.2212 32.8852 40.5101 34.0937 39.6651 35.2187C39.4441 35.5139 39.1681 35.7544 38.9581 36.0475C38.5231 36.6528 38.0341 37.1974 37.4911 37.6963C36.684 38.4387 35.894 39.1989 34.98 39.8071C34.648 40.0278 34.328 40.2722 33.999 40.5008C33.394 40.9212 32.7389 41.2452 32.1079 41.6149C31.3999 42.0303 30.6309 42.3225 29.8699 42.6097C29.1278 42.89 28.3618 43.1116 27.5868 43.3014C26.8758 43.4753 26.1608 43.6443 25.4447 43.7705C24.3077 43.9702 23.1527 44.0378 22.2666 43.9802L22.2706 43.9782ZM23.9477 40.3567C24.7897 40.316 25.6007 40.1301 26.4178 39.9582C27.4078 39.7495 28.3648 39.4196 29.2898 39.0181C30.2329 38.6086 31.1369 38.1127 32.0019 37.5333C33.0119 36.8565 33.959 36.1091 34.834 35.2594C35.353 34.7556 35.82 34.205 36.283 33.6465C37.0101 32.7689 37.6311 31.8109 38.1681 30.8071C38.7241 29.7686 39.1641 28.6664 39.5071 27.5265C40.0311 25.7844 40.2911 23.9965 40.2991 22.1808C40.3021 21.3867 40.2551 20.5837 40.1371 19.7887C40.0121 18.9459 39.8761 18.1081 39.6391 17.2912C39.3691 16.359 39.0471 15.4497 38.6501 14.5612C37.9681 13.0367 37.0951 11.6483 36.047 10.3752C35.51 9.72329 34.905 9.13594 34.292 8.55754C33.73 8.02783 33.1229 7.56372 32.5029 7.11551C31.8919 6.67425 31.2379 6.30853 30.5809 5.94181C29.7939 5.50254 28.9738 5.14278 28.1348 4.85159C27.4418 4.61109 26.7208 4.43717 25.9988 4.27518C24.7647 3.9979 23.5217 3.91542 22.2716 3.85579C21.9056 3.8379 21.5356 3.90448 21.1676 3.91144C20.3476 3.92635 19.5386 4.05554 18.7366 4.20163C17.6945 4.39245 16.6755 4.70649 15.6905 5.10104C14.5924 5.54031 13.5334 6.07995 12.5404 6.73786C11.7004 7.2944 10.9033 7.90758 10.1553 8.59828C9.4383 9.26116 8.77728 9.96777 8.16326 10.73C7.29624 11.8063 6.58022 12.982 5.9792 14.2303C5.49719 15.233 5.12418 16.2815 4.83117 17.3638C4.40716 18.927 4.22716 20.5211 4.17115 22.1361C4.15815 22.5187 4.23516 22.8924 4.24316 23.275C4.26116 24.072 4.37616 24.8601 4.53116 25.6423C4.70517 26.5198 4.92917 27.3795 5.22018 28.2272C5.63519 29.4386 6.17121 30.5885 6.81923 31.6777C7.51524 32.8464 8.36127 33.8999 9.28329 34.8897C9.88631 35.5377 10.5363 36.136 11.2263 36.6716C11.8244 37.1358 12.4744 37.5383 13.1304 37.9278C13.7664 38.3055 14.4104 38.6792 15.0755 38.9743C16.0925 39.4255 17.1545 39.7823 18.2465 40.0089C19.5306 40.2752 20.8236 40.469 22.2806 40.475C22.7437 40.47 23.3447 40.3885 23.9477 40.3597V40.3567Z" fill="white"/>
<path fill-rule="evenodd" clip-rule="evenodd" d="M33.0359 32.8315C33.0359 33.5371 33.0299 34.2428 33.0399 34.9474C33.0429 35.1441 33.0089 35.2197 32.7929 35.2177C31.6739 35.2068 30.5549 35.2078 29.4358 35.2217C29.1788 35.2246 29.1048 35.1392 29.1068 34.8808C29.1188 33.5024 29.1018 32.1239 29.1258 30.7455C29.1308 30.4344 29.0248 30.3957 28.7738 30.3977C27.4988 30.4066 26.2238 30.3937 24.9487 30.4086C24.6997 30.4116 24.6297 30.3361 24.6337 30.0886C24.6457 29.3303 24.6477 28.571 24.6327 27.8128C24.6287 27.5981 24.7057 27.5762 24.8807 27.5772C25.9797 27.5842 27.0778 27.5732 28.1768 27.5872C28.4238 27.5901 28.5068 27.5464 28.5028 27.2671C28.4858 25.9851 28.5038 24.7021 28.4898 23.4201C28.4868 23.117 28.5648 23.0196 28.8688 23.0245C29.9459 23.0424 31.0249 23.0385 32.1019 23.0216C32.3499 23.0176 32.4199 23.0911 32.4179 23.3416C32.4079 24.6345 32.4209 25.9285 32.4069 27.2214C32.4039 27.4967 32.4509 27.5951 32.7489 27.5901C34.044 27.5703 35.34 27.5852 36.636 27.5772C36.826 27.5762 36.903 27.607 36.898 27.8306C36.883 28.5999 36.882 29.3701 36.898 30.1393C36.903 30.3788 36.822 30.4106 36.618 30.4086C35.53 30.3987 34.441 30.4116 33.353 30.3977C33.1059 30.3947 33.0179 30.4384 33.0269 30.7187C33.0499 31.4233 33.0349 32.1289 33.0349 32.8345L33.0359 32.8315Z" fill="white"/>
<path fill-rule="evenodd" clip-rule="evenodd" d="M11.8864 21.7107C11.8864 17.329 11.8894 12.9462 11.8794 8.5645C11.8794 8.27132 11.9514 8.20275 12.2324 8.20275C16.1095 8.21268 19.9866 8.18883 23.8627 8.22361C24.8857 8.23256 25.8977 8.45418 26.8758 8.81096C27.5788 9.06737 28.2338 9.40129 28.8578 9.82366C29.6278 10.3454 30.2159 11.0242 30.6839 11.8351C31.2679 12.8459 31.5159 13.942 31.6159 15.1068C31.7699 16.9006 31.4349 18.5832 30.6689 20.1812C30.2779 20.9981 29.6868 21.6441 28.9798 22.2027C28.1288 22.8755 27.2098 23.4052 26.2118 23.7848C25.5557 24.0343 24.8697 24.1853 24.1777 24.3145C22.6037 24.6087 21.0166 24.4696 19.4346 24.4934C19.1786 24.4974 19.0916 24.5342 19.0936 24.8313C19.1066 28.1656 19.0986 31.5008 19.1076 34.8351C19.1076 35.1402 19.0726 35.2306 18.7266 35.2256C16.5505 35.1978 14.3734 35.2058 12.1964 35.2187C11.9354 35.2197 11.8794 35.1531 11.8804 34.8887C11.8894 30.4961 11.8864 26.1034 11.8864 21.7107ZM19.0976 18.934C19.0946 19.1278 19.1356 19.1884 19.3336 19.1824C19.9296 19.1656 20.5256 19.1695 21.1216 19.1248C21.5386 19.093 21.9546 19.0493 22.3417 18.9111C23.9477 18.3387 24.6517 17.1729 24.3777 15.4795C24.1617 14.1418 23.1627 13.5525 21.9106 13.471C21.0856 13.4173 20.2556 13.466 19.4276 13.469C19.1406 13.469 18.9786 13.6588 19.0616 13.946C19.0986 14.0752 19.0996 14.1955 19.0996 14.3197C19.1036 15.067 19.1016 15.8154 19.1016 16.5627C19.1016 17.3528 19.1076 18.1439 19.0966 18.934H19.0976Z" fill="white"/>
<path fill-rule="evenodd" clip-rule="evenodd" d="M27.8738 30.9105C28.0171 30.9982 28.0673 31.1443 28.1177 31.2912L28.1216 31.3025L28.1275 31.3198C28.1313 31.3308 28.1351 31.3417 28.1391 31.3526L28.1408 31.3537C28.1432 31.3565 28.1457 31.3593 28.1481 31.362C28.1874 31.4071 28.2261 31.4515 28.2968 31.4253C28.3051 31.4222 28.3134 31.4189 28.3216 31.4156C28.3283 31.4129 28.335 31.4101 28.3417 31.4073L28.3422 31.4071C28.3748 31.3936 28.4073 31.3801 28.4408 31.3726C28.6308 31.3309 28.8258 31.3627 28.8698 31.5694C28.8991 31.7086 28.7984 31.7279 28.6895 31.7488C28.6382 31.7586 28.5851 31.7688 28.5428 31.792C28.7638 32.0375 28.7738 32.2969 28.7038 32.599C28.6558 32.8037 28.5688 32.8395 28.3958 32.8693C28.1766 32.9075 27.9726 32.8535 27.7693 32.7997C27.6239 32.7612 27.4789 32.7228 27.3288 32.7182L27.327 32.7189C27.2652 32.8399 27.3402 32.8581 27.4079 32.8745C27.426 32.8789 27.4435 32.8831 27.4578 32.8892C27.4663 32.8927 27.4749 32.8963 27.4835 32.8998C27.6178 32.9554 27.7493 33.0098 27.8208 33.1555C27.9446 33.1585 27.9789 33.245 28.0132 33.3316C28.0249 33.3611 28.0366 33.3906 28.0518 33.4169L28.0515 33.4177C28.1 33.4679 28.1375 33.5241 28.1378 33.5988L28.1388 33.5998C28.1409 33.6017 28.143 33.6038 28.1451 33.6058C28.1474 33.6081 28.1497 33.6103 28.1519 33.6127C28.1557 33.6165 28.1594 33.6204 28.1631 33.6243C28.1974 33.6606 28.232 33.6971 28.2928 33.6753C28.2977 33.6736 28.3025 33.6718 28.3074 33.67L28.3135 33.6677C28.3169 33.6665 28.3203 33.6652 28.3237 33.6639L28.3318 33.6607L28.3464 33.655L28.3466 33.655C28.3768 33.6432 28.4071 33.6313 28.4378 33.6226C28.6148 33.5739 28.7978 33.5948 28.8568 33.7836C28.908 33.9474 28.8088 33.9672 28.7024 33.9885C28.6467 33.9997 28.589 34.0112 28.5498 34.044C28.7628 34.2815 28.7658 34.5379 28.7028 34.841C28.6548 35.0766 28.5488 35.1054 28.3678 35.1074C28.0613 35.1117 27.7594 35.0701 27.4568 35.0283C27.1315 34.9835 26.8054 34.9385 26.4718 34.9504C26.3269 34.9557 26.1902 34.9971 26.0546 35.0381C25.8617 35.0965 25.6712 35.1542 25.4627 35.1064C25.4135 35.0952 25.356 35.099 25.2986 35.1028C25.1778 35.1109 25.0577 35.1189 25.0177 34.9861C25.0093 34.9579 25.0004 34.9294 24.9914 34.9006C24.9242 34.686 24.8523 34.4563 24.9607 34.2259C24.9807 34.1834 25.0101 34.1454 25.039 34.108C25.0534 34.0893 25.0677 34.0708 25.0807 34.0519C25.0455 34.0093 24.9824 33.9941 24.9221 33.9796C24.8195 33.955 24.7252 33.9323 24.7907 33.7796C24.8907 33.5471 25.1127 33.5511 25.3207 33.6753C25.3509 33.6683 25.3785 33.676 25.405 33.6889C25.4635 33.6784 25.4902 33.6215 25.5179 33.5623L25.5216 33.5543C25.5235 33.5503 25.5254 33.5462 25.5274 33.5422C25.5301 33.5365 25.5329 33.5308 25.5357 33.5252C25.5471 33.5028 25.5582 33.4802 25.5694 33.4575L25.5696 33.4572C25.6488 33.2966 25.7283 33.1354 25.8807 33.0283L25.8822 33.0292L25.8817 33.0283C25.8948 33.0203 25.9079 33.0124 25.9211 33.0045C25.9391 32.9937 25.9572 32.9829 25.9752 32.9722L25.9757 32.9719L25.9989 32.958L26.0155 32.9481L26.0284 32.9404C26.0419 32.9323 26.0553 32.9242 26.0688 32.916C26.1382 32.8454 26.2246 32.8423 26.3105 32.8392C26.3334 32.8384 26.3563 32.8376 26.3788 32.8355C26.3768 32.8157 26.3745 32.7961 26.3723 32.7765L26.3723 32.7764C26.37 32.7568 26.3678 32.7371 26.3658 32.7172C26.2159 32.6938 26.0777 32.7449 25.9389 32.7962C25.7842 32.8534 25.6287 32.9109 25.4557 32.8653C25.4072 32.8524 25.3499 32.8561 25.293 32.8598C25.1835 32.8669 25.0755 32.8738 25.0347 32.762L25.0318 32.7539C24.9476 32.5215 24.8549 32.266 24.9597 32.0057C24.9807 31.9535 25.0125 31.9058 25.0433 31.8593L25.0434 31.8593L25.0436 31.8589C25.0568 31.8391 25.0698 31.8195 25.0817 31.8C25.0457 31.7631 24.9856 31.7501 24.9279 31.7377C24.8236 31.7152 24.7271 31.6943 24.7947 31.5376C24.8927 31.31 25.1147 31.308 25.3227 31.4332C25.3398 31.4438 25.3568 31.4526 25.3738 31.4596C25.3672 31.4512 25.3603 31.4441 25.353 31.4393C25.4694 31.4554 25.5024 31.3697 25.5345 31.2866C25.5445 31.2606 25.5544 31.2349 25.5667 31.2126C25.7117 30.9492 25.8767 30.7167 26.1938 30.667V30.666C26.6068 30.4474 27.0238 30.4672 27.4438 30.6451L27.4441 30.6462C27.6187 30.681 27.7625 30.7682 27.8744 30.9099L27.8738 30.9105ZM26.2247 30.7421L26.2246 30.7399L26.2245 30.7376C26.4435 30.7754 26.6637 30.7712 26.8839 30.767C27.0457 30.7639 27.2075 30.7608 27.3688 30.7743C27.3733 30.772 27.3778 30.7696 27.3821 30.7671C27.4755 30.9171 27.6181 30.9784 27.7912 30.9839C27.7886 30.9908 27.7865 30.9981 27.7848 31.0059C27.7925 31.0333 27.7992 31.0614 27.8058 31.0895C27.8352 31.2132 27.8645 31.3368 27.9815 31.4008C27.9336 31.4163 27.8862 31.4042 27.8388 31.3921C27.8118 31.3853 27.7848 31.3784 27.7578 31.3766C27.6108 31.367 27.4661 31.3328 27.3213 31.2986C27.075 31.2404 26.8287 31.1822 26.5718 31.2454C26.3809 31.2924 26.1882 31.3273 25.9957 31.3623L25.9956 31.3623C25.8744 31.3843 25.7533 31.4063 25.6327 31.4312L25.6319 31.4318C25.7574 31.3164 25.8634 31.1826 25.9693 31.0489C26.0514 30.9453 26.1335 30.8416 26.2248 30.7465C26.2248 30.745 26.2247 30.7435 26.2247 30.7421ZM27.9647 33.6518C27.9199 33.6225 27.9173 33.5678 27.9412 33.4975C27.9389 33.4972 27.9365 33.4968 27.934 33.4964C27.9329 33.4962 27.9318 33.4959 27.9307 33.4957L27.9284 33.4952L27.9263 33.4948C27.9245 33.4944 27.9227 33.4939 27.9208 33.4934C27.8271 33.4175 27.7516 33.33 27.7335 33.2071L27.6951 33.1952C27.3061 33.0748 26.9171 32.9545 26.5028 32.9756L26.4981 32.9739C26.4445 33.0462 26.3613 33.0521 26.2779 33.0581L26.266 33.0589C26.2606 33.0593 26.2553 33.0597 26.2499 33.0602C26.2398 33.061 26.2297 33.0619 26.2198 33.0631C26.2064 33.0594 26.1931 33.0557 26.1803 33.0515C26.1413 33.1481 26.0712 33.1876 25.9681 33.1652C25.9685 33.1673 25.9688 33.1695 25.9692 33.1716L25.9697 33.1754C25.9597 33.1969 25.9498 33.2184 25.9399 33.2399C25.8607 33.4117 25.7815 33.5837 25.6499 33.7191C26.3104 33.4778 26.9789 33.3965 27.6668 33.6077C27.6821 33.6125 27.6976 33.6177 27.7133 33.623C27.7939 33.6502 27.8791 33.6789 27.9647 33.6518ZM25.4517 32.3873H25.3077C25.2217 32.3873 25.1087 32.3774 25.0997 32.2909C25.0887 32.1746 25.2027 32.1508 25.3007 32.1448C25.3417 32.1418 25.3847 32.1388 25.4247 32.1458C25.4624 32.1521 25.5081 32.1484 25.5541 32.1448C25.6684 32.1357 25.7847 32.1264 25.7847 32.268C25.7847 32.4036 25.6859 32.3927 25.5892 32.382C25.5377 32.3763 25.4868 32.3707 25.4517 32.3873ZM28.106 32.3866C28.1183 32.3865 28.1314 32.3864 28.1456 32.3864C28.1598 32.3863 28.1751 32.3863 28.1918 32.3863H28.1938C28.2243 32.3751 28.2707 32.3789 28.3193 32.3828C28.4171 32.3908 28.5238 32.3995 28.5278 32.2879C28.5336 32.1325 28.4088 32.139 28.2876 32.1453C28.2421 32.1477 28.1972 32.1501 28.1598 32.1438C28.1098 32.1359 28.0568 32.1398 28.0068 32.1458C27.9218 32.1557 27.8298 32.1796 27.8368 32.2859C27.8418 32.3734 27.9288 32.3843 28.0018 32.3863C28.0331 32.3869 28.0648 32.3868 28.106 32.3866ZM28.1728 34.3829C28.2122 34.3938 28.2614 34.3917 28.3104 34.3897C28.4184 34.3852 28.5255 34.3808 28.5248 34.5141C28.5241 34.6651 28.3914 34.6481 28.2727 34.6329C28.2368 34.6284 28.2021 34.6239 28.1728 34.6244C28.1484 34.6248 28.12 34.6286 28.0904 34.6326C27.9792 34.6475 27.8504 34.6647 27.8488 34.5141C27.8481 34.3813 27.9503 34.3851 28.053 34.3889C28.0956 34.3905 28.1383 34.392 28.1738 34.3839L28.1728 34.3829ZM25.3162 34.6253C25.3598 34.6223 25.4017 34.6193 25.4317 34.6284H25.613C25.6956 34.6284 25.7958 34.6284 25.7987 34.521C25.8026 34.3964 25.6969 34.392 25.6055 34.3882L25.5977 34.3879C25.5577 34.3859 25.5167 34.3859 25.4757 34.3888C25.4447 34.3911 25.4089 34.39 25.3723 34.3889C25.2484 34.3851 25.1138 34.3809 25.1107 34.5051C25.1072 34.6401 25.2162 34.6324 25.3162 34.6253Z" fill="white"/>
<path d="M27.8744 30.9099L27.8748 30.9095V30.9105L27.8744 30.9099Z" fill="white"/>
<path d="M25.353 31.4393C25.3492 31.4388 25.3454 31.4381 25.3414 31.4374C25.3354 31.4363 25.3292 31.4349 25.3227 31.4332C25.3337 31.4305 25.3437 31.4331 25.353 31.4393Z" fill="white"/>
<path fill-rule="evenodd" clip-rule="evenodd" d="M33.845 22.7811C34.3 22.6151 34.757 22.5396 35.217 22.7612C35.542 22.8327 35.75 23.0494 35.882 23.3505L35.8826 23.3518C35.9354 23.4726 35.9836 23.5829 36.143 23.5324C36.1419 23.5342 36.1407 23.536 36.1395 23.5377C36.1413 23.536 36.1432 23.5342 36.145 23.5324L36.143 23.5314C36.1542 23.5258 36.1652 23.5195 36.1762 23.5132C36.2005 23.4992 36.2248 23.4852 36.251 23.4797C36.433 23.441 36.612 23.4887 36.643 23.6825C36.6647 23.8164 36.5678 23.8369 36.4597 23.8598C36.413 23.8697 36.3642 23.88 36.322 23.9001C36.562 24.1605 36.551 24.4606 36.469 24.7776C36.444 24.873 36.405 24.9545 36.323 24.9535C36.2394 24.9519 36.1547 24.9613 36.07 24.9707C35.8547 24.9947 35.6386 25.0187 35.437 24.8611C35.3676 24.8068 35.2851 24.8166 35.2014 24.8264C35.1487 24.8326 35.0956 24.8389 35.045 24.8293L35.0435 24.8303L35.044 24.8303C35.0432 24.8365 35.0424 24.8426 35.0416 24.8487C35.041 24.8531 35.0403 24.8576 35.0397 24.862C35.0385 24.8708 35.0373 24.8796 35.036 24.8884C35.0333 24.9075 35.0306 24.9265 35.0281 24.9456C35.2715 24.954 35.4388 25.1023 35.6063 25.2508C35.6383 25.2793 35.6704 25.3077 35.703 25.3352L35.7028 25.336L35.7041 25.3376C35.7994 25.4471 35.8942 25.5559 35.913 25.7108L35.9126 25.7112C35.9134 25.7117 35.9142 25.7123 35.915 25.7128L35.913 25.7108C35.924 25.7202 35.9341 25.7311 35.9442 25.7419C35.9802 25.7806 36.0155 25.8185 36.085 25.7844C36.14 25.7575 36.199 25.7347 36.258 25.7228C36.428 25.688 36.598 25.7337 36.637 25.9076C36.672 26.0658 36.5703 26.0855 36.4592 26.1069C36.4112 26.1162 36.3614 26.1258 36.32 26.1471C36.577 26.4055 36.542 26.7116 36.467 27.0296C36.443 27.13 36.389 27.1966 36.31 27.1976C36.2353 27.1984 36.1597 27.2068 36.084 27.2152C35.8681 27.2392 35.6517 27.2632 35.454 27.1101C35.4059 27.0733 35.3565 27.0745 35.3061 27.0758C35.2968 27.0761 35.2874 27.0763 35.278 27.0763C35.145 27.0763 35.0106 27.07 34.8763 27.0637C34.5621 27.0489 34.248 27.0341 33.951 27.1002C33.642 27.1688 33.3429 27.2135 33.0319 27.2194C33.0051 27.2194 32.9778 27.211 32.9503 27.2024C32.9379 27.1986 32.9254 27.1947 32.9129 27.1916L32.9121 27.1902L32.9119 27.1906C32.7544 27.1671 32.7625 27.0647 32.7706 26.9626C32.7728 26.9351 32.775 26.9078 32.7739 26.8819C32.6122 26.6162 32.6883 26.3742 32.8609 26.1521C32.8213 26.122 32.7647 26.1093 32.7101 26.097C32.6006 26.0725 32.4995 26.0498 32.5609 25.8927C32.6409 25.688 32.8509 25.6522 33.0529 25.7754L33.0525 25.7762L33.0538 25.7768L33.0549 25.7774C33.0722 25.7698 33.0868 25.7741 33.0976 25.7885C33.2391 25.8221 33.2767 25.7286 33.3134 25.637C33.3228 25.6137 33.332 25.5906 33.3429 25.5697C33.484 25.3024 33.655 25.0738 33.969 25.0142L33.9703 25.0145L33.9864 25.0069C33.9971 25.0018 34.0078 24.9967 34.0184 24.9916C34.0314 24.9854 34.0445 24.9792 34.0575 24.9729C34.087 24.9588 34.1165 24.9446 34.146 24.9307C34.1636 24.9093 34.1829 24.8937 34.2033 24.8824C34.1957 24.8808 34.1881 24.8792 34.1805 24.8776C34.0764 24.8553 33.9723 24.8331 33.864 24.8532C33.8383 24.8513 33.8171 24.8466 33.8003 24.8395C33.8077 24.8484 33.8091 24.8572 33.804 24.8661C33.796 24.88 33.789 24.887 33.781 24.887C33.5208 25.04 33.2444 24.998 32.9737 24.957L32.9439 24.9524L32.9245 24.9495C32.911 24.9475 32.8974 24.9455 32.8839 24.9436C32.7439 24.9237 32.6419 24.3453 32.7269 24.1436C32.7496 24.0901 32.7793 24.0396 32.8089 23.9893L32.809 23.9891L32.8091 23.9889C32.8212 23.9683 32.8333 23.9477 32.8449 23.9269C32.8422 23.9215 32.84 23.9149 32.8379 23.9083C32.8338 23.8958 32.8298 23.8835 32.8219 23.8802C32.7924 23.8669 32.7563 23.8612 32.7201 23.8554C32.6242 23.8402 32.528 23.8249 32.5519 23.6675C32.5799 23.4787 32.8229 23.431 33.0979 23.5463C33.0988 23.5482 33.0998 23.55 33.1011 23.5516C33.1006 23.5499 33.1002 23.5481 33.0999 23.5463C33.2406 23.5842 33.2833 23.4788 33.3199 23.3884L33.3199 23.3883C33.3236 23.3791 33.3273 23.3701 33.331 23.3614C33.4387 23.1047 33.6201 22.926 33.8444 22.7831L33.845 22.7821V22.7811ZM32.7762 26.875C32.7765 26.8777 32.7769 26.8803 32.7774 26.883L32.7751 26.882C32.7754 26.8796 32.7758 26.8773 32.7762 26.875ZM35.7579 25.7606C35.6274 25.7018 35.6139 25.5743 35.637 25.4256V25.4246L35.6462 25.4121C35.6356 25.4169 35.6233 25.4199 35.609 25.4206C35.5251 25.3727 35.4351 25.3365 35.3453 25.3003C35.2 25.2419 35.0547 25.1835 34.9351 25.0754C34.9298 25.0772 34.9245 25.079 34.9192 25.0807L34.9131 25.0827L34.9076 25.0846C34.9027 25.0862 34.8978 25.0879 34.893 25.0897C34.7886 25.0838 34.684 25.0975 34.5793 25.1112C34.4013 25.1346 34.223 25.1579 34.0455 25.085C34.0472 25.0917 34.0484 25.0989 34.049 25.1066C33.8557 25.257 33.7069 25.4492 33.558 25.6415C33.5103 25.7031 33.4626 25.7647 33.4134 25.825C34.1018 25.5856 34.797 25.5267 35.507 25.7247C35.524 25.7296 35.5412 25.7353 35.5585 25.7411C35.6235 25.7628 35.6902 25.7851 35.7579 25.7606ZM35.572 23.4926C34.8454 23.2902 34.1302 23.3203 33.4238 23.5746C33.5705 23.4018 33.7003 23.2156 33.8303 23.029C33.853 22.9964 33.8758 22.9638 33.8986 22.9313C33.903 22.9331 33.9075 22.9349 33.9121 22.9366C33.9144 22.9374 33.9167 22.9383 33.919 22.9391C34.3249 22.8647 34.7328 22.8606 35.1427 22.8852C35.148 22.9112 35.1623 22.9333 35.186 22.946C35.426 23.0752 35.61 23.2561 35.723 23.5135C35.7259 23.5198 35.7292 23.526 35.7329 23.5319C35.6785 23.5218 35.6248 23.5075 35.572 23.4926ZM32.8601 24.3171C32.8612 24.3226 32.8616 24.3284 32.8609 24.3344L32.8621 24.335C32.9348 24.5422 33.0724 24.5195 33.2098 24.4969C33.2768 24.4858 33.3437 24.4748 33.403 24.4904C33.519 24.5212 33.596 24.4556 33.578 24.3155C33.3397 24.234 33.1034 24.2039 32.87 24.33C32.8684 24.3279 32.8668 24.3259 32.8652 24.3238C32.8634 24.3216 32.8618 24.3193 32.8601 24.3171ZM32.9741 26.4983C32.8005 26.6316 32.8805 26.7018 33.0359 26.7524H33.0369C33.0638 26.7514 33.0907 26.7503 33.1175 26.7493C33.2247 26.7452 33.3318 26.741 33.439 26.7394C33.5079 26.7384 33.568 26.7116 33.576 26.641C33.586 26.5506 33.521 26.5069 33.441 26.5039C33.3324 26.4997 33.2239 26.499 33.1154 26.4982C33.0696 26.4979 33.0238 26.4975 32.978 26.497L32.9762 26.493L32.9749 26.4969L32.9741 26.4983ZM35.944 26.7404C35.9111 26.7312 35.867 26.7352 35.822 26.7393C35.7265 26.748 35.6271 26.757 35.623 26.6401C35.6185 26.49 35.741 26.4957 35.8573 26.5011C35.895 26.5028 35.9321 26.5046 35.964 26.5009C35.9942 26.4972 36.0255 26.4985 36.0562 26.4998C36.0662 26.5002 36.0762 26.5007 36.086 26.5009L36.0899 26.501C36.1933 26.504 36.3209 26.5076 36.31 26.644C36.3022 26.742 36.2048 26.7411 36.1203 26.7404C36.1071 26.7403 36.0942 26.7402 36.082 26.7404H35.944ZM35.8958 24.4959C35.9159 24.4961 35.9387 24.4964 35.966 24.4964V24.4974C35.9995 24.4798 36.0519 24.4856 36.1055 24.4915C36.2007 24.5021 36.2995 24.513 36.302 24.394C36.3049 24.2395 36.1842 24.2478 36.0649 24.256C36.0162 24.2593 35.9677 24.2627 35.928 24.2549C35.8975 24.2481 35.8658 24.2505 35.8343 24.2529C35.8245 24.2537 35.8147 24.2544 35.805 24.2549C35.708 24.2599 35.597 24.2817 35.609 24.4C35.618 24.4904 35.725 24.5004 35.811 24.4964C35.8367 24.4951 35.8623 24.4955 35.8958 24.4959Z" fill="white"/>
<path d="M68.9909 27.3491H61.9963V34.845H57.3333V9.37332C61.2191 9.37332 65.105 9.33693 68.9909 9.33693C81.0724 9.33693 81.1077 27.3491 68.9909 27.3491ZM61.9963 22.9461H68.9909C74.961 22.9461 74.9256 13.9218 68.9909 13.9218H61.9963V22.9461Z" fill="white"/>
<path d="M98.7708 30.0418H85.8414L83.7218 34.845H78.6702L89.7626 9.37332H94.8496L105.942 34.845H100.855L98.7708 30.0418ZM92.3061 14.7224L87.7137 25.566H96.8985L92.3061 14.7224Z" fill="white"/>
<path d="M129.61 34.845H124.064L116.858 26.3302H112.371V34.845H107.708V9.33693C111.629 9.33693 115.551 9.37332 119.472 9.37332C125.301 9.4097 128.374 13.4124 128.374 17.8154C128.374 21.3086 126.82 24.8383 122.121 25.8208L129.61 34.5175V34.845ZM112.371 13.8491V22H119.472C122.439 22 123.711 19.9623 123.711 17.9245C123.711 15.8868 122.404 13.8491 119.472 13.8491H112.371Z" fill="white"/>
<path d="M151.371 9.51887L140.385 21.7089L152.29 34.5539V34.845H146.532L136.181 23.5647V34.845H131.518V9.37332H136.181V20.1442L145.578 9.37332H151.371V9.51887Z" fill="white"/>
<path d="M173.45 27.3491H166.456V34.845H161.792V9.37332C165.678 9.37332 169.564 9.33693 173.45 9.33693C185.532 9.33693 185.567 27.3491 173.45 27.3491ZM166.456 22.9461H173.45C179.42 22.9461 179.385 13.9218 173.45 13.9218H166.456V22.9461Z" fill="white"/>
<path d="M190.336 9.37332V30.4057H203.053V34.845H185.673V9.37332H190.336Z" fill="white"/>
<path d="M228.029 9.4097V24.0013C228.029 31.5337 223.542 35.3908 217.325 35.3908C211.108 35.3908 206.339 31.6792 206.339 24.0013V9.4097H210.966V24.0013C210.966 28.5863 213.51 31.0243 217.36 31.0243C221.211 31.0243 223.401 28.3679 223.401 24.0013V9.4097H228.029Z" fill="white"/>
<path d="M247.847 15.5229C246.999 14.0674 244.667 12.6846 241.983 12.6846C238.521 12.6846 236.86 14.1765 236.86 16.0687C236.86 18.2884 239.404 18.907 242.371 19.2709C247.529 19.9259 252.333 21.3086 252.333 27.3854C252.333 33.062 247.458 35.5 241.947 35.5C236.896 35.5 233.01 33.8989 231.173 29.2412L235.059 27.1671C236.154 29.969 239.015 31.2062 242.018 31.2062C245.021 31.2062 247.706 30.1509 247.706 27.3854C247.706 24.9838 245.268 24.0013 241.983 23.6375C236.931 23.0189 232.268 21.6361 232.268 15.9232C232.268 10.6833 237.284 8.53639 241.841 8.5C245.692 8.5 249.684 9.62803 251.556 13.558L247.847 15.5229Z" fill="white"/>
</svg>
