<svg width="162" height="29" viewBox="0 0 162 29" fill="none" xmlns="http://www.w3.org/2000/svg">
<g id="Vector">
<path fill-rule="evenodd" clip-rule="evenodd" d="M14.2979 28.9856C13.5911 28.9804 13.0563 29.0099 12.5259 28.9385C12.1028 28.8821 11.683 28.7963 11.2612 28.7269C10.7462 28.6424 10.2461 28.48 9.74661 28.3359C9.35498 28.2225 8.9704 28.049 8.5884 27.8852C8.35406 27.785 8.13128 27.6363 7.8719 27.5898C7.77881 27.5734 7.6947 27.4896 7.61059 27.4293C7.28445 27.1955 6.91978 27.037 6.584 26.8188C6.15255 26.5391 5.74102 26.2319 5.33718 25.9129C5.0457 25.6824 4.76257 25.4387 4.49292 25.1774C4.26179 24.954 4.01268 24.7496 3.80467 24.5007C3.61655 24.2754 3.42074 24.0579 3.23712 23.828C2.88593 23.3885 2.55015 22.9366 2.22914 22.4728C2.12192 22.3176 2.03653 22.1453 1.94472 21.9783C1.90171 21.9003 1.90042 21.8505 1.98774 21.7778C2.41982 21.4189 2.8121 21.0082 3.25124 20.6571C3.31544 20.606 3.30389 20.5516 3.27307 20.4757C3.10229 20.0551 2.94628 19.6274 2.77293 19.2082C2.66122 18.9377 2.56492 18.66 2.44229 18.3927C2.37616 18.2486 2.29141 18.2558 2.21373 18.2794C1.94536 18.3606 1.66929 18.2899 1.39772 18.3495C1.16273 18.4012 0.912986 18.3711 0.672226 18.4019C0.477051 18.4274 0.41028 18.3004 0.372401 18.1523C0.307556 17.9001 0.277381 17.6381 0.209326 17.3873C0.0969717 16.9726 0.0828471 16.5429 0.0128663 16.1218C-0.0262972 15.886 0.0173605 15.8185 0.235649 15.7569C0.737071 15.6154 1.24684 15.508 1.74248 15.3384C1.84264 15.3043 1.85805 15.284 1.86383 15.1635C1.89207 14.5681 1.9505 13.9746 1.99159 13.3799C2.00379 13.2056 1.99351 13.0301 1.99416 12.8552C1.99416 12.812 1.98774 12.789 1.93702 12.7687C1.40221 12.5506 0.877033 12.3004 0.332595 12.1137C0.123295 12.0417 0.144482 11.9153 0.169521 11.7901C0.301136 11.1377 0.439171 10.4854 0.659386 9.85981C0.7146 9.70261 0.756974 9.54213 0.811546 9.38558C0.871896 9.21265 0.993881 9.12161 1.17493 9.16091C1.57684 9.24868 1.97939 9.33514 2.37937 9.43274C2.48595 9.45894 2.59445 9.45567 2.70167 9.49235C2.83393 9.53754 2.89299 9.41898 2.94692 9.31222C3.17099 8.86943 3.37901 8.41615 3.63004 7.99105C3.73276 7.81681 3.79761 7.619 3.92665 7.45918C3.98829 7.38254 3.99792 7.29739 3.90418 7.21092C3.55813 6.89324 3.28527 6.49958 2.94371 6.17469C2.71194 5.95395 2.73249 5.82622 2.93216 5.54718C3.23134 5.12863 3.57097 4.74872 3.90547 4.36553C4.12247 4.11663 4.37543 3.90178 4.62068 3.68235C4.72918 3.58475 4.82677 3.68432 4.91216 3.74916C5.30508 4.04851 5.69672 4.35178 6.08578 4.65636C6.17759 4.72841 6.25335 4.73431 6.34773 4.65767C6.47485 4.55418 6.59684 4.4389 6.72845 4.34588C6.97948 4.16903 7.21896 3.97711 7.46036 3.78715C7.6427 3.64371 7.82888 3.50746 8.01122 3.36401C8.07927 3.3103 8.11523 3.2507 8.08056 3.14458C7.93289 2.69262 7.80192 2.23411 7.65297 1.7828C7.59904 1.6184 7.62215 1.52866 7.78587 1.46709C7.95344 1.40421 8.10881 1.3053 8.27381 1.23259C8.48439 1.13892 8.69754 1.05181 8.91134 0.96862C9.1521 0.874952 9.39799 0.794385 9.63811 0.698098C9.88593 0.598536 10.1415 0.538274 10.4028 0.505523C10.5569 0.485873 10.571 0.650937 10.6153 0.738054C10.8355 1.16971 11.0377 1.61185 11.2438 2.05202C11.3061 2.18498 11.3985 2.20988 11.5302 2.18367C12.0367 2.0828 12.5439 1.98979 13.0518 1.89547C13.2238 1.86337 13.3901 1.80442 13.5686 1.80508C13.6206 1.80508 13.6893 1.77953 13.6931 1.68062C13.7118 1.14154 13.8581 0.618186 13.8658 0.0771426C13.8671 0.0044358 13.9249 0.00443581 13.9769 0.00443581C14.5695 0.00640086 15.164 -0.0243849 15.7534 0.052907C16.0776 0.0954831 16.4006 0.164915 16.7248 0.214041C16.816 0.227796 16.8538 0.301813 16.866 0.406616C16.9206 0.864472 16.9084 1.32429 16.8981 1.7828C16.8936 2.00224 16.9444 2.10835 17.1652 2.16533C17.804 2.32974 18.421 2.57799 19.0592 2.75026C19.1433 2.77319 19.1735 2.77908 19.2274 2.69786C19.4842 2.31533 19.7616 1.94852 19.976 1.53455C20.0601 1.37211 20.1962 1.35704 20.3773 1.44547C20.948 1.72582 21.4886 2.06577 22.0253 2.409C22.3489 2.61533 22.6366 2.88389 22.9422 3.12166C23.4821 3.54283 23.9842 4.01641 24.4471 4.52339C24.8901 5.0081 25.301 5.53212 25.6798 6.08037C26.3622 7.06748 26.915 8.13188 27.3439 9.26375C27.5172 9.72029 27.6732 10.1886 27.7862 10.6747C27.9262 11.2773 28.0719 11.8773 28.1567 12.4904C28.2633 13.2633 28.2376 14.0441 28.2472 14.8229C28.2556 15.491 28.2183 16.1565 28.1137 16.8108C28.0341 17.308 27.9339 17.8058 27.8004 18.2945C27.6932 18.6875 27.5795 19.0792 27.4434 19.4604C27.2752 19.93 27.0929 20.3951 26.8726 20.8431C26.4643 21.6743 26.0078 22.4708 25.4653 23.2123C25.3234 23.4069 25.1462 23.5654 25.0114 23.7586C24.7321 24.1575 24.4182 24.5165 24.0696 24.8453C23.5514 25.3346 23.0442 25.8357 22.4574 26.2365C22.2443 26.3819 22.0388 26.5431 21.8276 26.6937C21.4392 26.9708 21.0187 27.1843 20.6135 27.428C20.159 27.7018 19.6653 27.8944 19.1767 28.0837C18.7003 28.2684 18.2085 28.4145 17.7109 28.5396C17.2545 28.6542 16.7954 28.7655 16.3357 28.8487C15.6057 28.9804 14.8642 29.0249 14.2954 28.9869L14.2979 28.9856ZM15.3746 26.5988C15.9152 26.5719 16.4359 26.4494 16.9604 26.3361C17.596 26.1985 18.2104 25.9811 18.8043 25.7164C19.4097 25.4466 19.9901 25.1197 20.5455 24.7379C21.1939 24.2918 21.8019 23.7992 22.3637 23.2392C22.6969 22.9071 22.9967 22.5442 23.294 22.1761C23.7607 21.5977 24.1594 20.9663 24.5042 20.3047C24.8612 19.6202 25.1437 18.8938 25.3639 18.1425C25.7003 16.9942 25.8672 15.8159 25.8724 14.6192C25.8743 14.0958 25.8441 13.5665 25.7684 13.0425C25.6881 12.4871 25.6008 11.9349 25.4486 11.3965C25.2753 10.7821 25.0686 10.1827 24.8137 9.59715C24.3758 8.59235 23.8153 7.6773 23.1425 6.83822C22.7977 6.40853 22.4093 6.02142 22.0157 5.6402C21.6549 5.29107 21.2652 4.98518 20.8671 4.68977C20.4749 4.39894 20.055 4.15789 19.6332 3.91619C19.1279 3.62668 18.6014 3.38956 18.0628 3.19764C17.6178 3.03913 17.1549 2.9245 16.6914 2.81773C15.8991 2.63498 15.1011 2.58061 14.2986 2.54131C14.0636 2.52952 13.826 2.57341 13.5898 2.57799C13.0633 2.58782 12.5439 2.67297 12.029 2.76926C11.36 2.89502 10.7058 3.10201 10.0734 3.36205C9.36846 3.65157 8.68856 4.00724 8.05102 4.44086C7.51172 4.80767 7.00003 5.21181 6.51979 5.66705C6.05946 6.10395 5.63508 6.56966 5.24088 7.07206C4.68424 7.78144 4.22455 8.55633 3.8387 9.37903C3.52924 10.0399 3.28976 10.731 3.10165 11.4443C2.82943 12.4746 2.71387 13.5253 2.67791 14.5897C2.66957 14.8419 2.719 15.0882 2.72414 15.3403C2.7357 15.8657 2.80953 16.3851 2.90904 16.9006C3.02076 17.479 3.16457 18.0455 3.3514 18.6043C3.61784 19.4027 3.96196 20.1606 4.378 20.8785C4.82485 21.6488 5.368 22.3431 5.95995 22.9955C6.34709 23.4226 6.76441 23.8169 7.2074 24.17C7.59133 24.4758 8.00865 24.7411 8.42982 24.9979C8.83815 25.2468 9.25161 25.4931 9.67856 25.6876C10.3315 25.985 11.0133 26.2201 11.7144 26.3695C12.5388 26.545 13.3689 26.6728 14.3044 26.6767C14.6016 26.6734 14.9875 26.6197 15.3746 26.6007V26.5988Z" fill="#0500FF"/>
<path fill-rule="evenodd" clip-rule="evenodd" d="M21.2093 21.639C21.2093 22.104 21.2055 22.5691 21.2119 23.0335C21.2138 23.1632 21.192 23.213 21.0533 23.2117C20.3349 23.2045 19.6165 23.2051 18.898 23.2143C18.733 23.2162 18.6855 23.1599 18.6868 22.9896C18.6945 22.0811 18.6836 21.1726 18.699 20.2641C18.7022 20.0591 18.6342 20.0335 18.473 20.0348C17.6544 20.0407 16.8359 20.0322 16.0173 20.042C15.8574 20.044 15.8125 19.9942 15.815 19.8311C15.8227 19.3313 15.824 18.8309 15.8144 18.3311C15.8118 18.1896 15.8613 18.1752 15.9736 18.1759C16.6792 18.1805 17.3841 18.1733 18.0897 18.1824C18.2483 18.1844 18.3016 18.1556 18.299 17.9715C18.2881 17.1266 18.2997 16.2809 18.2907 15.436C18.2888 15.2362 18.3388 15.172 18.534 15.1753C19.2255 15.1871 19.9182 15.1844 20.6097 15.1733C20.7689 15.1707 20.8138 15.2192 20.8126 15.3842C20.8061 16.2364 20.8145 17.0892 20.8055 17.9414C20.8036 18.1228 20.8338 18.1877 21.0251 18.1844C21.8565 18.1713 22.6886 18.1811 23.5206 18.1759C23.6426 18.1752 23.692 18.1955 23.6888 18.3429C23.6792 18.8499 23.6786 19.3575 23.6888 19.8645C23.692 20.0224 23.64 20.0433 23.5091 20.042C22.8105 20.0355 22.1114 20.044 21.4129 20.0348C21.2543 20.0329 21.1978 20.0617 21.2036 20.2464C21.2183 20.7108 21.2087 21.1759 21.2087 21.6409L21.2093 21.639Z" fill="#0500FF"/>
<path fill-rule="evenodd" clip-rule="evenodd" d="M7.63114 14.3093C7.63114 11.4214 7.63307 8.53275 7.62665 5.64478C7.62665 5.45155 7.67287 5.40636 7.85328 5.40636C10.3424 5.41291 12.8315 5.39718 15.32 5.42011C15.9768 5.426 16.6266 5.57207 17.2545 5.80723C17.7058 5.97622 18.1263 6.1963 18.527 6.47469C19.0213 6.81857 19.3988 7.26595 19.6993 7.80044C20.0742 8.46659 20.2335 9.18907 20.2977 9.95675C20.3965 11.1391 20.1815 12.248 19.6897 13.3013C19.4386 13.8397 19.0592 14.2655 18.6053 14.6336C18.0589 15.077 17.4689 15.4261 16.8282 15.6764C16.407 15.8408 15.9666 15.9403 15.5223 16.0255C14.5117 16.2194 13.4928 16.1277 12.4771 16.1434C12.3128 16.146 12.2569 16.1702 12.2582 16.3661C12.2666 18.5637 12.2614 20.7619 12.2672 22.9595C12.2672 23.1606 12.2447 23.2202 12.0226 23.2169C10.6255 23.1986 9.22786 23.2038 7.83017 23.2123C7.6626 23.213 7.62665 23.1691 7.62729 22.9949C7.63307 20.0997 7.63114 17.2045 7.63114 14.3093ZM12.2608 12.4792C12.2589 12.6069 12.2852 12.6469 12.4123 12.643C12.795 12.6318 13.1776 12.6345 13.5602 12.605C13.828 12.584 14.0951 12.5552 14.3435 12.4642C15.3746 12.0869 15.8266 11.3185 15.6507 10.2024C15.512 9.32073 14.8706 8.93231 14.0668 8.8786C13.5371 8.84323 13.0043 8.87532 12.4727 8.87729C12.2884 8.87729 12.1844 9.00239 12.2377 9.19169C12.2614 9.27685 12.2621 9.3561 12.2621 9.43798C12.2646 9.93055 12.2634 10.4238 12.2634 10.9164C12.2634 11.4371 12.2672 11.9585 12.2601 12.4792H12.2608Z" fill="#0500FF"/>
<path fill-rule="evenodd" clip-rule="evenodd" d="M17.8952 20.3728C17.9872 20.4306 18.0194 20.5269 18.0518 20.6238L18.0543 20.6312L18.0581 20.6426C18.0605 20.6498 18.063 20.657 18.0655 20.6642L18.0666 20.665C18.0682 20.6668 18.0697 20.6686 18.0713 20.6704C18.0966 20.7002 18.1214 20.7294 18.1668 20.7121C18.1721 20.7101 18.1774 20.7079 18.1827 20.7057C18.187 20.7039 18.1913 20.7021 18.1956 20.7003C18.2165 20.6914 18.2377 20.6823 18.2592 20.6774C18.3812 20.6499 18.5064 20.6709 18.5347 20.8071C18.5534 20.8988 18.4888 20.9115 18.4189 20.9253C18.386 20.9318 18.3518 20.9385 18.3247 20.9538C18.4666 21.1156 18.473 21.2866 18.4281 21.4857C18.3973 21.6206 18.3414 21.6442 18.2303 21.6639C18.0896 21.6891 17.9586 21.6535 17.8281 21.618C17.7348 21.5926 17.6416 21.5673 17.5453 21.5643L17.5441 21.5647C17.5045 21.6445 17.5526 21.6565 17.5961 21.6673C17.6077 21.6702 17.6189 21.673 17.6281 21.677C17.6336 21.6793 17.6391 21.6816 17.6446 21.684C17.7308 21.7206 17.8153 21.7564 17.8612 21.8525C17.9407 21.8545 17.9627 21.9114 17.9847 21.9686C17.9922 21.988 17.9997 22.0075 18.0095 22.0248C18.0406 22.0579 18.0645 22.0954 18.0647 22.1446L18.0653 22.1453C18.0667 22.1466 18.0681 22.1479 18.0694 22.1493C18.0709 22.1508 18.0723 22.1523 18.0738 22.1538C18.0762 22.1563 18.0785 22.1589 18.0809 22.1615C18.103 22.1854 18.1251 22.2094 18.1642 22.1951C18.1673 22.194 18.1704 22.1928 18.1735 22.1916L18.1775 22.1901C18.1797 22.1893 18.1818 22.1884 18.184 22.1876L18.1892 22.1855L18.1986 22.1817C18.218 22.174 18.2376 22.1661 18.2573 22.1604C18.3709 22.1283 18.4884 22.142 18.5263 22.2665C18.5592 22.3744 18.4955 22.3875 18.4272 22.4015C18.3914 22.4089 18.3544 22.4165 18.3292 22.4381C18.466 22.5946 18.4679 22.7636 18.4274 22.9634C18.3966 23.1186 18.3286 23.1376 18.2124 23.139C18.0156 23.1418 17.8218 23.1144 17.6275 23.0869C17.4187 23.0573 17.2093 23.0277 16.9951 23.0355C16.9021 23.039 16.8143 23.0663 16.7273 23.0933C16.6034 23.1318 16.4811 23.1698 16.3473 23.1383C16.3157 23.1309 16.2787 23.1334 16.2419 23.136C16.1643 23.1413 16.0873 23.1465 16.0616 23.059C16.0562 23.0405 16.0505 23.0217 16.0447 23.0027C16.0015 22.8612 15.9553 22.7099 16.025 22.558C16.0378 22.53 16.0567 22.5049 16.0753 22.4803C16.0845 22.468 16.0937 22.4557 16.102 22.4433C16.0794 22.4152 16.0389 22.4052 16.0002 22.3957C15.9343 22.3794 15.8738 22.3645 15.9158 22.2638C15.98 22.1106 16.1226 22.1132 16.2561 22.1951C16.2755 22.1905 16.2932 22.1955 16.3102 22.2041C16.3478 22.1972 16.3649 22.1596 16.3827 22.1206L16.3851 22.1154C16.3863 22.1127 16.3875 22.11 16.3888 22.1074C16.3905 22.1036 16.3923 22.0999 16.3941 22.0962C16.4014 22.0814 16.4086 22.0665 16.4158 22.0516C16.4666 21.9457 16.5178 21.8392 16.6156 21.7687L16.6165 21.7692C16.6249 21.764 16.6331 21.7582 16.6415 21.753C16.6531 21.7459 16.6647 21.7388 16.6763 21.7317L16.7022 21.7158L16.7104 21.7107C16.7191 21.7054 16.7277 21.7 16.7363 21.6946C16.781 21.6481 16.8364 21.6461 16.8916 21.644C16.9062 21.6435 16.9209 21.643 16.9354 21.6416C16.9341 21.6285 16.9327 21.6156 16.9312 21.6027C16.9298 21.5898 16.9283 21.5767 16.927 21.5636C16.8308 21.5482 16.7421 21.5819 16.653 21.6157C16.5536 21.6534 16.4538 21.6913 16.3428 21.6612C16.3116 21.6527 16.2748 21.6552 16.2383 21.6576C16.168 21.6622 16.0987 21.6668 16.0725 21.5931L16.0706 21.5878C16.0165 21.4346 15.9571 21.2663 16.0243 21.0946C16.0378 21.0603 16.0582 21.0288 16.078 20.9982C16.0865 20.9851 16.095 20.972 16.1027 20.9591C16.0796 20.9348 16.041 20.9262 16.0039 20.918C15.937 20.9032 15.875 20.8894 15.9184 20.7861C15.9813 20.6361 16.1239 20.6348 16.2574 20.7174C16.2683 20.7243 16.2793 20.7301 16.2902 20.7347C16.2859 20.7292 16.2815 20.7245 16.2768 20.7214C16.3515 20.732 16.3728 20.6755 16.3933 20.6207C16.3998 20.6036 16.4061 20.5866 16.414 20.5719C16.5071 20.3984 16.6131 20.2451 16.8166 20.2123C17.0818 20.0682 17.3495 20.0807 17.6191 20.1979L17.6193 20.1986C17.7314 20.2216 17.8234 20.2794 17.8952 20.3728ZM16.8365 20.2618L16.8364 20.2604L16.8363 20.2589C16.9769 20.2838 17.1183 20.281 17.2597 20.2782C17.3636 20.2762 17.4674 20.2741 17.571 20.2831C17.5739 20.2815 17.5767 20.2799 17.5795 20.2783C17.6395 20.3772 17.731 20.4176 17.8422 20.4212C17.8405 20.4257 17.8391 20.4306 17.8381 20.4357C17.843 20.4538 17.8473 20.4723 17.8516 20.4908C17.8704 20.5724 17.8892 20.6538 17.9643 20.696C17.9336 20.7062 17.9032 20.6982 17.8727 20.6903C17.8554 20.6857 17.8381 20.6812 17.8207 20.68C17.7264 20.6737 17.6334 20.6512 17.5405 20.6286C17.3824 20.5903 17.2243 20.5519 17.0593 20.5936C16.9368 20.6245 16.8131 20.6476 16.6895 20.6706C16.6117 20.6851 16.5338 20.6996 16.4564 20.716L16.4559 20.7164C16.5365 20.6403 16.6045 20.5522 16.6725 20.4641C16.7252 20.3957 16.7779 20.3274 16.8365 20.2647C16.8365 20.2638 16.8365 20.2628 16.8365 20.2618ZM17.9536 22.1796C17.9248 22.1603 17.9231 22.1243 17.9385 22.0779C17.937 22.0777 17.9354 22.0774 17.9338 22.0771C17.9331 22.077 17.9324 22.0769 17.9317 22.0767L17.9302 22.0764L17.9289 22.0761C17.9277 22.0758 17.9266 22.0755 17.9254 22.0752C17.8652 22.0252 17.8167 21.9675 17.8051 21.8865L17.7805 21.8787C17.5307 21.7993 17.281 21.72 17.015 21.7339L17.012 21.7328C16.9776 21.7805 16.9242 21.7844 16.8706 21.7883L16.863 21.7888C16.8595 21.7891 16.8561 21.7894 16.8526 21.7897C16.8462 21.7902 16.8397 21.7908 16.8333 21.7916C16.8247 21.7892 16.8162 21.7867 16.8079 21.7839C16.7829 21.8476 16.7379 21.8737 16.6717 21.8589C16.672 21.8603 16.6722 21.8617 16.6724 21.8631L16.6728 21.8656C16.6663 21.8798 16.66 21.8939 16.6536 21.9081C16.6028 22.0214 16.5519 22.1347 16.4674 22.2239C16.8915 22.0649 17.3207 22.0113 17.7623 22.1505C17.7721 22.1537 17.7821 22.1571 17.7922 22.1606C17.8439 22.1785 17.8986 22.1975 17.9536 22.1796ZM16.3402 21.3462H16.2478C16.1925 21.3462 16.12 21.3396 16.1142 21.2826C16.1072 21.206 16.1803 21.1903 16.2433 21.1864C16.2696 21.1844 16.2972 21.1824 16.3229 21.187C16.347 21.1911 16.3764 21.1887 16.406 21.1863C16.4793 21.1803 16.554 21.1742 16.554 21.2676C16.554 21.3569 16.4906 21.3497 16.4285 21.3427C16.3954 21.339 16.3627 21.3353 16.3402 21.3462ZM18.0443 21.3457C18.0522 21.3457 18.0606 21.3456 18.0697 21.3456C18.0788 21.3455 18.0887 21.3455 18.0994 21.3455H18.1006C18.1202 21.3381 18.15 21.3406 18.1812 21.3432C18.244 21.3485 18.3125 21.3542 18.3151 21.2807C18.3188 21.1783 18.2387 21.1825 18.1609 21.1867C18.1317 21.1883 18.1028 21.1898 18.0788 21.1857C18.0467 21.1805 18.0127 21.1831 17.9806 21.187C17.926 21.1936 17.867 21.2093 17.8714 21.2794C17.8747 21.337 17.9305 21.3442 17.9774 21.3455C17.9975 21.3459 18.0178 21.3458 18.0443 21.3457ZM18.0872 22.6614C18.1124 22.6686 18.144 22.6673 18.1755 22.6659C18.2448 22.663 18.3136 22.6601 18.3132 22.7479C18.3127 22.8474 18.2275 22.8363 18.1513 22.8263C18.1282 22.8232 18.106 22.8203 18.0872 22.8206C18.0715 22.8209 18.0533 22.8234 18.0343 22.826C17.9628 22.8358 17.8802 22.8472 17.8792 22.7479C17.8787 22.6604 17.9443 22.6629 18.0103 22.6654C18.0376 22.6664 18.065 22.6675 18.0878 22.6621L18.0872 22.6614ZM16.2532 22.8212C16.2812 22.8192 16.3081 22.8173 16.3274 22.8232H16.4437C16.4968 22.8232 16.5611 22.8232 16.563 22.7525C16.5655 22.6703 16.4976 22.6674 16.4389 22.6649L16.434 22.6647C16.4083 22.6634 16.3819 22.6634 16.3556 22.6654C16.3357 22.6669 16.3127 22.6661 16.2892 22.6654C16.2097 22.6629 16.1233 22.6601 16.1213 22.742C16.119 22.831 16.189 22.8259 16.2532 22.8212Z" fill="#0500FF"/>
<path d="M16.2768 20.7214C16.2744 20.721 16.2719 20.7206 16.2694 20.7201C16.2655 20.7194 16.2615 20.7185 16.2574 20.7174C16.2644 20.7155 16.2708 20.7173 16.2768 20.7214Z" fill="#0500FF"/>
<path fill-rule="evenodd" clip-rule="evenodd" d="M21.7287 15.0148C22.0209 14.9054 22.3143 14.8556 22.6096 15.0017C22.8182 15.0488 22.9518 15.1916 23.0365 15.3901L23.0369 15.391C23.0708 15.4705 23.1018 15.5433 23.2041 15.51C23.2034 15.5112 23.2026 15.5123 23.2018 15.5135C23.203 15.5124 23.2042 15.5112 23.2054 15.51H23.2041C23.2113 15.5063 23.2183 15.5015 23.2254 15.4973C23.241 15.4881 23.2566 15.4789 23.2734 15.4753C23.3903 15.4497 23.5052 15.4812 23.5251 15.6089C23.539 15.6972 23.4768 15.7107 23.4074 15.7258C23.3774 15.7323 23.3461 15.7391 23.319 15.7523C23.4731 15.924 23.4661 16.1218 23.4134 16.3307C23.3974 16.3936 23.3723 16.4473 23.3197 16.4467C23.266 16.4455 23.2116 16.4518 23.1572 16.458C23.019 16.4738 22.8803 16.4896 22.7508 16.3857C22.7063 16.35 22.6533 16.3564 22.5996 16.3629C22.5658 16.367 22.5316 16.3711 22.4992 16.3648L22.4982 16.3654C22.4977 16.3695 22.4975 16.3735 22.497 16.3776C22.4966 16.3805 22.4962 16.3834 22.4958 16.3863C22.495 16.3921 22.4942 16.3979 22.4934 16.4038C22.4916 16.4163 22.4899 16.4289 22.4883 16.4414C22.6446 16.4469 22.752 16.5447 22.8595 16.6426C22.8801 16.6613 22.9007 16.6801 22.9216 16.6982L22.9223 16.6998C22.9835 16.7719 23.0443 16.8437 23.0564 16.9458C23.0635 16.9519 23.07 16.9591 23.0765 16.9663C23.0996 16.9917 23.1222 17.0168 23.1669 16.9942C23.2022 16.9766 23.2401 16.9615 23.2779 16.9536C23.3871 16.9307 23.4962 16.9608 23.5213 17.0755C23.5437 17.1798 23.4784 17.1927 23.4071 17.2068C23.3763 17.213 23.3443 17.2193 23.3177 17.2333C23.4827 17.4036 23.4603 17.6054 23.4121 17.815C23.3967 17.8811 23.362 17.925 23.3113 17.9257C23.2633 17.9262 23.2148 17.9317 23.1662 17.9373C23.0276 17.9531 22.8887 17.9689 22.7618 17.868C22.7309 17.8437 22.6991 17.8446 22.6668 17.8454C22.6608 17.8456 22.6548 17.8458 22.6488 17.8458C22.5634 17.8458 22.4771 17.8416 22.3908 17.8374C22.1891 17.8277 21.9875 17.8179 21.7968 17.8615C21.5984 17.9067 21.4064 17.9362 21.2068 17.9401C21.1895 17.9401 21.172 17.9345 21.1543 17.9289C21.1464 17.9263 21.1384 17.9238 21.1304 17.9217L21.1298 17.9208C21.0287 17.9053 21.0338 17.8381 21.039 17.7708C21.0404 17.7527 21.0418 17.7347 21.0411 17.7176C20.9373 17.5425 20.9861 17.383 21.097 17.2366C21.0716 17.2168 21.0352 17.2084 21.0001 17.2003C20.9299 17.1842 20.865 17.1692 20.9044 17.0656C20.9557 16.9307 21.0906 16.9071 21.2203 16.9884L21.2208 16.9893L21.2215 16.9897C21.2326 16.9846 21.242 16.9875 21.2489 16.997C21.3398 17.0191 21.3639 16.9575 21.3875 16.8971C21.3935 16.8818 21.3994 16.8665 21.4064 16.8528C21.497 16.6766 21.6067 16.5259 21.8083 16.4866L21.8092 16.4869L21.8195 16.4818C21.8264 16.4785 21.8332 16.4751 21.8401 16.4718C21.8485 16.4677 21.8568 16.4635 21.8652 16.4594C21.8841 16.4501 21.903 16.4408 21.922 16.4316C21.9333 16.4175 21.9457 16.4072 21.9588 16.3998C21.9539 16.3987 21.949 16.3976 21.9441 16.3966C21.8773 16.3819 21.8105 16.3673 21.7409 16.3805C21.7244 16.3793 21.7108 16.3762 21.7001 16.3715C21.7048 16.3773 21.7057 16.3832 21.7024 16.389C21.6973 16.3982 21.6928 16.4028 21.6876 16.4028C21.5206 16.5036 21.3432 16.476 21.1694 16.4489L21.1502 16.4459L21.1378 16.444C21.1291 16.4427 21.1204 16.4414 21.1117 16.4401C21.0219 16.427 20.9564 16.0458 21.0109 15.9128C21.0255 15.8776 21.0446 15.8443 21.0636 15.8111C21.0714 15.7975 21.0793 15.7837 21.0867 15.77C21.0849 15.7664 21.0836 15.7621 21.0822 15.7578C21.0796 15.7495 21.077 15.7414 21.0719 15.7392C21.053 15.7304 21.0298 15.7267 21.0066 15.7229C20.945 15.7128 20.8832 15.7028 20.8986 15.5991C20.9166 15.4746 21.0726 15.4432 21.2491 15.5192C21.2497 15.5204 21.2504 15.5216 21.2512 15.5226C21.2509 15.5215 21.2506 15.5204 21.2504 15.5192C21.3407 15.5441 21.3681 15.4747 21.3916 15.4151C21.394 15.4091 21.3964 15.403 21.3987 15.3973C21.4679 15.2281 21.5844 15.1103 21.7283 15.0161L21.7287 15.0148ZM21.0426 17.7131C21.0428 17.7148 21.0431 17.7166 21.0434 17.7183L21.0419 17.7177C21.0421 17.7161 21.0423 17.7146 21.0426 17.7131ZM22.9569 16.9786C22.8731 16.9399 22.8644 16.8558 22.8792 16.7578L22.8852 16.7489C22.8783 16.7521 22.8704 16.754 22.8613 16.7545C22.8074 16.7229 22.7496 16.6991 22.6919 16.6752C22.5986 16.6367 22.5054 16.5982 22.4286 16.527C22.4252 16.5282 22.4218 16.5293 22.4184 16.5305L22.4145 16.5318L22.411 16.533C22.4078 16.5341 22.4047 16.5352 22.4016 16.5364C22.3346 16.5325 22.2674 16.5415 22.2002 16.5506C22.0859 16.566 21.9714 16.5814 21.8575 16.5333C21.8586 16.5377 21.8593 16.5424 21.8597 16.5475C21.7356 16.6466 21.6401 16.7733 21.5445 16.9001C21.5139 16.9407 21.4833 16.9813 21.4517 17.021C21.8936 16.8632 22.34 16.8244 22.7958 16.9549C22.8067 16.9581 22.8177 16.9619 22.8288 16.9657C22.8706 16.98 22.9134 16.9947 22.9569 16.9786ZM22.8375 15.4838C22.371 15.3504 21.9119 15.3702 21.4583 15.5378C21.5525 15.4239 21.6358 15.3012 21.7193 15.1782C21.7339 15.1568 21.7485 15.1353 21.7632 15.1138C21.766 15.115 21.7689 15.1162 21.7718 15.1173C21.7733 15.1179 21.7748 15.1184 21.7762 15.1189C22.0368 15.0699 22.2987 15.0672 22.5619 15.0834C22.5653 15.1006 22.5745 15.1151 22.5897 15.1235C22.7438 15.2087 22.8619 15.3279 22.9345 15.4975C22.9363 15.5017 22.9384 15.5058 22.9408 15.5096C22.9059 15.503 22.8714 15.4936 22.8375 15.4838ZM21.0964 16.0272C21.0972 16.0308 21.0974 16.0346 21.097 16.0386L21.0978 16.039C21.1444 16.1755 21.2328 16.1606 21.321 16.1457C21.3639 16.1384 21.4069 16.1311 21.445 16.1414C21.5194 16.1617 21.5689 16.1185 21.5573 16.0261C21.4044 15.9724 21.2526 15.9526 21.1028 16.0357C21.1018 16.0343 21.1007 16.033 21.0997 16.0316C21.0986 16.0301 21.0975 16.0286 21.0964 16.0272ZM21.1697 17.4648C21.0582 17.5526 21.1095 17.5989 21.2093 17.6322H21.21C21.2272 17.6316 21.2445 17.6309 21.2617 17.6302C21.3305 17.6275 21.3993 17.6248 21.4681 17.6237C21.5124 17.6231 21.5509 17.6054 21.556 17.5589C21.5624 17.4993 21.5207 17.4704 21.4694 17.4685C21.3997 17.4657 21.33 17.4652 21.2603 17.4647C21.2309 17.4645 21.2016 17.4643 21.1722 17.4639L21.171 17.4613L21.1702 17.4639L21.1697 17.4648ZM23.0763 17.6244C23.0552 17.6183 23.0269 17.6209 22.998 17.6236C22.9367 17.6293 22.8729 17.6353 22.8703 17.5582C22.8673 17.4593 22.946 17.4631 23.0207 17.4666C23.0449 17.4678 23.0687 17.4689 23.0892 17.4665C23.1085 17.464 23.1286 17.4649 23.1483 17.4658C23.1548 17.4661 23.1612 17.4664 23.1675 17.4665L23.17 17.4666C23.2364 17.4685 23.3183 17.4709 23.3113 17.5608C23.3063 17.6254 23.2437 17.6248 23.1895 17.6243C23.181 17.6243 23.1728 17.6242 23.1649 17.6244H23.0763ZM23.0454 16.145C23.0583 16.1452 23.0729 16.1453 23.0905 16.1453C23.112 16.1338 23.1456 16.1383 23.18 16.1422C23.2411 16.1491 23.3045 16.1563 23.3062 16.0779C23.308 15.976 23.2305 15.9815 23.154 15.9869C23.1227 15.9891 23.0916 15.9913 23.0661 15.9862C23.0465 15.9817 23.0261 15.9833 23.0059 15.9849C22.9996 15.9854 22.9933 15.9859 22.9871 15.9862C22.9248 15.9895 22.8536 16.0039 22.8613 16.0818C22.867 16.1414 22.9357 16.148 22.991 16.1453C23.0074 16.1445 23.0239 16.1447 23.0454 16.145Z" fill="#0500FF"/>
<path d="M44.2927 18.0255H39.8022V22.966H36.8085V6.17787C39.3032 6.17787 41.798 6.15388 44.2927 6.15388C52.0492 6.15388 52.0718 18.0255 44.2927 18.0255ZM39.8022 15.1236H44.2927C48.1256 15.1236 48.1029 9.17575 44.2927 9.17575H39.8022V15.1236Z" fill="#0500FF"/>
<path d="M63.4117 19.8003H55.1109L53.7501 22.966H50.5069L57.6283 6.17787H60.8942L68.0156 22.966H64.7497L63.4117 19.8003ZM59.2613 9.70338L56.3129 16.8503H62.2096L59.2613 9.70338Z" fill="#0500FF"/>
<path d="M83.211 22.966H79.6503L75.0236 17.354H72.1433V22.966H69.1496V6.15388C71.667 6.15388 74.1845 6.17787 76.7019 6.17787C80.4441 6.20185 82.4172 8.83999 82.4172 11.7419C82.4172 14.0443 81.4193 16.3707 78.4029 17.0182L83.211 22.7502V22.966ZM72.1433 9.12779V14.5H76.7019C78.607 14.5 79.4235 13.1569 79.4235 11.8139C79.4235 10.4708 78.5843 9.12779 76.7019 9.12779H72.1433Z" fill="#0500FF"/>
<path d="M97.1816 6.2738L90.1283 14.3081L97.7713 22.7742V22.966H94.0745L87.4294 15.5313V22.966H84.4357V6.17787H87.4294V13.2769L93.4622 6.17787H97.1816V6.2738Z" fill="#0500FF"/>
<path d="M111.356 18.0255H106.866V22.966H103.872V6.17787C106.367 6.17787 108.862 6.15388 111.356 6.15388C119.113 6.15388 119.135 18.0255 111.356 18.0255ZM106.866 15.1236H111.356C115.189 15.1236 115.167 9.17575 111.356 9.17575H106.866V15.1236Z" fill="#0500FF"/>
<path d="M122.197 6.17787V20.0401H130.362V22.966H119.204V6.17787H122.197Z" fill="#0500FF"/>
<path d="M146.396 6.20185V15.8191C146.396 20.7836 143.516 23.3258 139.524 23.3258C135.533 23.3258 132.471 20.8795 132.471 15.8191V6.20185H135.442V15.8191C135.442 18.8409 137.075 20.4478 139.547 20.4478C142.019 20.4478 143.425 18.697 143.425 15.8191V6.20185H146.396Z" fill="#0500FF"/>
<path d="M159.12 10.231C158.575 9.27169 157.079 8.36033 155.355 8.36033C153.132 8.36033 152.066 9.34364 152.066 10.5908C152.066 12.0537 153.699 12.4614 155.604 12.7013C158.916 13.133 162 14.0443 162 18.0495C162 21.7909 158.87 23.3977 155.332 23.3977C152.089 23.3977 149.594 22.3425 148.415 19.2726L150.91 17.9056C151.613 19.7523 153.45 20.5677 155.378 20.5677C157.305 20.5677 159.029 19.8722 159.029 18.0495C159.029 16.4666 157.464 15.8191 155.355 15.5792C152.112 15.1715 149.118 14.2602 149.118 10.4948C149.118 7.04126 152.338 5.62626 155.264 5.60227C157.736 5.60227 160.299 6.34575 161.501 8.93592L159.12 10.231Z" fill="#0500FF"/>
</g>
</svg>
