<svg width="18" height="24" viewBox="0 0 18 24" fill="none" xmlns="http://www.w3.org/2000/svg">
<path id="gpp_maybe" d="M9 16.1738C9.22071 16.1738 9.39732 16.1018 9.52981 15.9577C9.66232 15.8137 9.72858 15.6322 9.72858 15.4133C9.72858 15.183 9.66232 14.9958 9.52981 14.8517C9.39732 14.7077 9.22071 14.6357 9 14.6357C8.77929 14.6357 8.60268 14.7077 8.47019 14.8517C8.33768 14.9958 8.27142 15.183 8.27142 15.4133C8.27142 15.6322 8.33768 15.8137 8.47019 15.9577C8.60268 16.1018 8.77929 16.1738 9 16.1738ZM8.45605 12.6779H9.54395V6.34494H8.45605V12.6779ZM9 24C6.41374 23.1885 4.26718 21.5417 2.56031 19.0594C0.853435 16.5771 0 13.791 0 10.7011V3.50966L9 0L18 3.50966V10.7011C18 13.791 17.1466 16.5771 15.4397 19.0594C13.7328 21.5417 11.5863 23.1885 9 24ZM9 22.7923C11.2978 22.0255 13.1909 20.5124 14.6794 18.2529C16.1679 15.9934 16.9121 13.4761 16.9121 10.7011V4.2899L9 1.20345L1.08791 4.2899V10.7011C1.08791 13.4761 1.83213 15.9934 3.32058 18.2529C4.80905 20.5124 6.70219 22.0255 9 22.7923Z" fill="white"/>
</svg>
