<svg width="31" height="30" viewBox="0 0 31 30" fill="none" xmlns="http://www.w3.org/2000/svg">
<g id="Frame" clip-path="url(#clip0_28_298)">
<g id="Group">
<path id="Vector" d="M25.0579 6.99349C25.0579 5.99646 24.2498 5.19141 23.2565 5.19141C22.2631 5.19141 21.4543 5.99646 21.4543 6.99349C21.4543 7.98686 22.2631 8.79191 23.2565 8.79191C24.2498 8.79191 25.0579 7.98686 25.0579 6.99349Z" fill="url(#paint0_linear_28_298)"/>
<path id="Vector_2" d="M27.4582 21.0606C27.3915 22.5232 27.1469 23.3178 26.9437 23.8456C26.6709 24.5454 26.3455 25.0458 25.8177 25.5706C25.2958 26.0955 24.7954 26.4202 24.0956 26.69C23.5678 26.8961 22.7701 27.1415 21.3076 27.2112C19.7264 27.2808 19.2578 27.2957 15.2481 27.2957C11.2421 27.2957 10.7699 27.2808 9.18864 27.2112C7.72608 27.1415 6.93211 26.8961 6.40426 26.69C5.7008 26.4202 5.20411 26.0955 4.6793 25.5706C4.15071 25.0458 3.82531 24.5454 3.55621 23.8456C3.35303 23.3178 3.10475 22.5232 3.04169 21.0606C2.96463 19.4794 2.95051 19.0035 2.95051 15.0019C2.95051 10.9922 2.96463 10.5199 3.04169 8.93869C3.10475 7.47614 3.35303 6.68217 3.55621 6.14987C3.82536 5.45085 4.15077 4.95338 4.67935 4.42857C5.20422 3.90448 5.70085 3.57902 6.40432 3.30626C6.93217 3.09943 7.72608 2.85773 9.18869 2.78809C10.7699 2.7184 11.2422 2.70056 15.2482 2.70056C19.2579 2.70056 19.7264 2.71834 21.3076 2.78809C22.7702 2.85773 23.5679 3.09943 24.0957 3.30626C24.7955 3.57902 25.2959 3.90448 25.8178 4.42857C26.3456 4.95343 26.671 5.45085 26.9438 6.14987C27.1469 6.68217 27.3915 7.47614 27.4583 8.93869C27.5317 10.5199 27.5494 10.9922 27.5494 15.0019C27.5494 19.0035 27.5316 19.4793 27.4582 21.0606ZM30.1588 8.81562C30.0854 7.21733 29.8334 6.1254 29.459 5.17433C29.078 4.18765 28.5672 3.35143 27.731 2.51522C26.8986 1.68278 26.0624 1.17197 25.0757 0.786488C24.1209 0.4158 23.0326 0.160763 21.4336 0.0911251C19.8346 0.0140625 19.3239 0 15.2482 0C11.1762 0 10.6617 0.0140625 9.06269 0.0911813C7.46738 0.160819 6.37985 0.415856 5.42061 0.786544C4.43765 1.17203 3.60143 1.68278 2.76899 2.51528C1.93278 3.35143 1.42203 4.18765 1.03728 5.17433C0.666588 6.1254 0.414588 7.21733 0.337469 8.81562C0.267775 10.4146 0.25 10.9261 0.25 15.0019C0.25 19.0739 0.267775 19.5846 0.337469 21.1836C0.414588 22.7789 0.666588 23.8701 1.03728 24.8257C1.42203 25.8086 1.93278 26.6486 2.76899 27.481C3.60143 28.3135 4.43765 28.828 5.42061 29.2127C6.37985 29.5834 7.46733 29.8354 9.06269 29.9088C10.6617 29.9822 11.1761 30 15.2482 30C19.3239 30 19.8346 29.9822 21.4336 29.9088C23.0327 29.8354 24.1209 29.5834 25.0757 29.2127C26.0624 28.828 26.8986 28.3135 27.7311 27.481C28.5673 26.6486 29.078 25.8086 29.4591 24.8257C29.8334 23.8701 30.0855 22.779 30.1589 21.1836C30.2323 19.5846 30.2501 19.0739 30.2501 15.0019C30.25 10.9261 30.2322 10.4146 30.1588 8.81562Z" fill="url(#paint1_linear_28_298)"/>
<path id="Vector_3" d="M15.2482 19.9975C12.4883 19.9975 10.2488 17.7617 10.2488 15.0018C10.2488 12.2374 12.4883 9.99871 15.2482 9.99871C18.0089 9.99871 20.2513 12.2374 20.2513 15.0018C20.2513 17.7617 18.0088 19.9975 15.2482 19.9975ZM15.2482 7.29443C10.9938 7.29443 7.54822 10.7474 7.54822 15.0018C7.54822 19.2525 10.9938 22.7018 15.2482 22.7018C19.5025 22.7018 22.9518 19.2525 22.9518 15.0018C22.9518 10.7475 19.5025 7.29443 15.2482 7.29443Z" fill="url(#paint2_linear_28_298)"/>
</g>
</g>
<defs>
<linearGradient id="paint0_linear_28_298" x1="0.520256" y1="29.6884" x2="27.7509" y2="2.45765" gradientUnits="userSpaceOnUse">
<stop stop-color="#FFD521"/>
<stop offset="0.05" stop-color="#FFD521"/>
<stop offset="0.5011" stop-color="#F50000"/>
<stop offset="0.95" stop-color="#B900B4"/>
<stop offset="0.9501" stop-color="#B900B4"/>
<stop offset="1" stop-color="#B900B4"/>
</linearGradient>
<linearGradient id="paint1_linear_28_298" x1="0.520822" y1="29.7273" x2="27.7739" y2="2.47423" gradientUnits="userSpaceOnUse">
<stop stop-color="#FFD521"/>
<stop offset="0.05" stop-color="#FFD521"/>
<stop offset="0.5011" stop-color="#F50000"/>
<stop offset="0.95" stop-color="#B900B4"/>
<stop offset="0.9501" stop-color="#B900B4"/>
<stop offset="1" stop-color="#B900B4"/>
</linearGradient>
<linearGradient id="paint2_linear_28_298" x1="0.527745" y1="29.7282" x2="27.7743" y2="2.48169" gradientUnits="userSpaceOnUse">
<stop stop-color="#FFD521"/>
<stop offset="0.05" stop-color="#FFD521"/>
<stop offset="0.5011" stop-color="#F50000"/>
<stop offset="0.95" stop-color="#B900B4"/>
<stop offset="0.9501" stop-color="#B900B4"/>
<stop offset="1" stop-color="#B900B4"/>
</linearGradient>
<clipPath id="clip0_28_298">
<rect width="30" height="30" fill="white" transform="translate(0.25)"/>
</clipPath>
</defs>
</svg>
