<svg width="31" height="30" viewBox="0 0 31 30" fill="none" xmlns="http://www.w3.org/2000/svg">
<g id="icon-linkedin" clip-path="url(#clip0_28_303)">
<path id="Vector" d="M28.0333 6.31358e-05H2.46667C2.17636 -0.00213623 1.88848 0.0531466 1.61964 0.162722C1.3508 0.272297 1.1063 0.433995 0.900241 0.638504C0.694183 0.843012 0.530643 1.08628 0.419042 1.35429C0.307441 1.6223 0.249992 1.90975 0.25 2.20006V27.8667C0.25878 28.4473 0.496718 29.0009 0.911952 29.4067C1.32719 29.8126 1.88604 30.0379 2.46667 30.0334H28.0333C28.614 30.0379 29.1728 29.8126 29.588 29.4067C30.0033 29.0009 30.2412 28.4473 30.25 27.8667V2.20006C30.25 1.90975 30.1926 1.6223 30.081 1.35429C29.9694 1.08628 29.8058 0.843012 29.5998 0.638504C29.3937 0.433995 29.1492 0.272297 28.8804 0.162722C28.6115 0.0531466 28.3236 -0.00213623 28.0333 6.31358e-05ZM9.14999 25.5334H4.7V11.2167H9.14999V25.5334ZM6.93334 9.26673C6.24819 9.26673 5.59111 8.99455 5.10664 8.51009C4.62217 8.02562 4.35 7.36854 4.35 6.68339C4.34778 6.34353 4.41309 6.00661 4.54213 5.69218C4.67117 5.37776 4.86138 5.09209 5.10171 4.85177C5.34204 4.61144 5.6277 4.42124 5.94213 4.2922C6.25655 4.16315 6.59347 4.09785 6.93334 4.10006C7.2718 4.10005 7.60693 4.16699 7.91942 4.29702C8.23192 4.42705 8.5156 4.6176 8.75416 4.85771C8.99271 5.09781 9.18142 5.38273 9.30942 5.69605C9.43743 6.00938 9.5022 6.34493 9.50001 6.68339C9.50441 7.02404 9.44138 7.36219 9.31457 7.67839C9.18776 7.99458 8.99967 8.28257 8.76111 8.52577C8.52255 8.76898 8.23825 8.96259 7.92456 9.09548C7.61087 9.22836 7.274 9.29789 6.93334 9.30006V9.26673ZM25.8167 25.5334H21.3667V18.5667C21.3667 16.9001 21.3667 14.7667 19.05 14.7667C16.7333 14.7667 16.3833 16.5834 16.3833 18.4501V25.5334H11.95V11.2167H16.2V13.1667C16.6407 12.4355 17.2724 11.8381 18.027 11.4388C18.7817 11.0394 19.6308 10.8532 20.4833 10.9001C24.9833 10.9001 25.8167 13.8667 25.8167 17.7167V25.5334Z" fill="#0065A1"/>
</g>
<defs>
<clipPath id="clip0_28_303">
<rect width="30" height="30" fill="white" transform="translate(0.25)"/>
</clipPath>
</defs>
</svg>
