<svg width="32" height="30" viewBox="0 0 32 30" fill="none" xmlns="http://www.w3.org/2000/svg">
<g id="icon-line" clip-path="url(#clip0_28_297)">
<path id="Vector" d="M31.25 12.7759C31.25 5.73205 24.2409 0 15.6351 0C7.02923 0 0.0201416 5.73205 0.0201416 12.7759C0.0201416 19.0916 5.57855 24.3796 13.0888 25.3793C13.5925 25.491 14.2876 25.7194 14.4639 26.1558C14.6226 26.5542 14.5672 27.1708 14.5143 27.5793C14.5143 27.5793 14.333 28.6907 14.2927 28.9267C14.2247 29.325 13.9779 30.4846 15.6451 29.7767C17.3124 29.0688 24.6439 24.4481 27.9205 20.642C30.1645 18.135 31.25 15.595 31.25 12.7759ZM9.50746 16.9678H6.40462C6.18731 16.9671 5.97912 16.8797 5.82569 16.7246C5.67226 16.5695 5.5861 16.3595 5.5861 16.1406V9.88582C5.5861 9.6671 5.67234 9.45734 5.82584 9.30269C5.97934 9.14803 6.18754 9.06115 6.40462 9.06115C6.62171 9.06115 6.82991 9.14803 6.98341 9.30269C7.13691 9.45734 7.22315 9.6671 7.22315 9.88582V15.3159H9.50746C9.61894 15.3097 9.73051 15.3264 9.83535 15.3651C9.94018 15.4038 10.0361 15.4636 10.1172 15.5409C10.1983 15.6183 10.2629 15.7114 10.307 15.8147C10.3512 15.9181 10.374 16.0294 10.374 16.1418C10.374 16.2543 10.3512 16.3656 10.307 16.4689C10.2629 16.5723 10.1983 16.6654 10.1172 16.7427C10.0361 16.82 9.94018 16.8799 9.83535 16.9186C9.73051 16.9573 9.61894 16.974 9.50746 16.9678ZM12.7186 16.1406C12.7186 16.3593 12.6324 16.569 12.4789 16.7237C12.3254 16.8784 12.1172 16.9652 11.9001 16.9652C11.683 16.9652 11.4748 16.8784 11.3213 16.7237C11.1678 16.569 11.0815 16.3593 11.0815 16.1406V9.88582C11.0815 9.6671 11.1678 9.45734 11.3213 9.30269C11.4748 9.14803 11.683 9.06115 11.9001 9.06115C12.1172 9.06115 12.3254 9.14803 12.4789 9.30269C12.6324 9.45734 12.7186 9.6671 12.7186 9.88582V16.1406ZM20.1936 16.1406C20.1942 16.3143 20.1402 16.4837 20.0393 16.6246C19.9384 16.7654 19.7958 16.8705 19.632 16.9246C19.4688 16.9801 19.2924 16.982 19.1281 16.93C18.9638 16.878 18.8201 16.7749 18.7178 16.6354L15.5368 12.271V16.1406C15.543 16.2529 15.5264 16.3653 15.488 16.4709C15.4496 16.5765 15.3902 16.6732 15.3135 16.7549C15.2368 16.8366 15.1443 16.9017 15.0417 16.9461C14.9392 16.9906 14.8287 17.0136 14.7171 17.0136C14.6054 17.0136 14.4949 16.9906 14.3924 16.9461C14.2898 16.9017 14.1974 16.8366 14.1206 16.7549C14.0439 16.6732 13.9845 16.5765 13.9461 16.4709C13.9077 16.3653 13.8911 16.2529 13.8973 16.1406V9.88582C13.8955 9.71177 13.9482 9.54158 14.048 9.39949C14.1478 9.2574 14.2896 9.15065 14.4531 9.09443C14.6166 9.03821 14.7935 9.03538 14.9587 9.08635C15.1239 9.13732 15.2689 9.2395 15.3731 9.37833L18.5541 13.7427V9.88582C18.5657 9.67468 18.6571 9.47605 18.8096 9.33072C18.962 9.18539 19.1639 9.10441 19.3738 9.10441C19.5837 9.10441 19.7856 9.18539 19.9381 9.33072C20.0906 9.47605 20.182 9.67468 20.1936 9.88582V16.1406ZM25.2156 12.1873C25.327 12.181 25.4386 12.1978 25.5435 12.2365C25.6483 12.2752 25.7442 12.335 25.8253 12.4123C25.9064 12.4896 25.971 12.5828 26.0152 12.6861C26.0593 12.7894 26.0821 12.9007 26.0821 13.0132C26.0821 13.1257 26.0593 13.237 26.0152 13.3403C25.971 13.4436 25.9064 13.5368 25.8253 13.6141C25.7442 13.6914 25.6483 13.7512 25.5435 13.7899C25.4386 13.8286 25.327 13.8454 25.2156 13.8391H22.9313V15.3159H25.2156C25.327 15.3097 25.4386 15.3264 25.5435 15.3651C25.6483 15.4038 25.7442 15.4636 25.8253 15.5409C25.9064 15.6183 25.971 15.7114 26.0152 15.8147C26.0593 15.9181 26.0821 16.0294 26.0821 16.1418C26.0821 16.2543 26.0593 16.3656 26.0152 16.4689C25.971 16.5723 25.9064 16.6654 25.8253 16.7427C25.7442 16.82 25.6483 16.8799 25.5435 16.9186C25.4386 16.9573 25.327 16.974 25.2156 16.9678H22.1127C21.8952 16.9671 21.6867 16.8797 21.5329 16.7248C21.3791 16.5698 21.2924 16.3598 21.2917 16.1406V13.0145V9.88582C21.2917 9.77731 21.3129 9.66986 21.3542 9.56964C21.3955 9.46942 21.456 9.3784 21.5323 9.30179C21.6086 9.22518 21.6991 9.16449 21.7987 9.12319C21.8983 9.0819 22.005 9.06082 22.1127 9.06115H25.2156C25.4327 9.06115 25.6409 9.14803 25.7944 9.30269C25.9479 9.45734 26.0341 9.6671 26.0341 9.88582C26.0341 10.1045 25.9479 10.3143 25.7944 10.4689C25.6409 10.6236 25.4327 10.7105 25.2156 10.7105H22.9313V12.1873H25.2156Z" fill="#00C300"/>
</g>
<defs>
<clipPath id="clip0_28_297">
<rect width="31.25" height="30" fill="white"/>
</clipPath>
</defs>
</svg>
