<svg width="43" height="30" viewBox="0 0 43 30" fill="none" xmlns="http://www.w3.org/2000/svg">
<g id="icon-youtube" clip-path="url(#clip0_337_2332)">
<path id="Icon" fill-rule="evenodd" clip-rule="evenodd" d="M21.3529 -0.000853091H21.3343C21.3343 -0.000853091 12.4788 -0.000853121 6.57484 0.430565C5.7502 0.530156 3.95257 0.538435 2.34777 2.23734C1.08289 3.53203 0.671254 6.47116 0.671254 6.47116C0.671254 6.47116 0.25 9.92288 0.25 13.3745V16.6106C0.25 20.0624 0.671875 23.5141 0.671875 23.5141C0.671875 23.5141 1.08351 26.4536 2.34839 27.7479C3.95319 29.4469 6.06127 29.3931 7.00019 29.5712C10.3752 29.8984 21.3439 29.9996 21.3439 29.9996C21.3439 29.9996 30.2088 29.9862 36.1124 29.5547C36.937 29.4551 38.7352 29.4469 40.3394 27.7479C41.6043 26.4536 42.0166 23.5141 42.0166 23.5141C42.0166 23.5141 42.4375 20.0624 42.4375 16.6106V13.3745C42.4375 9.92275 42.0162 6.47104 42.0162 6.47104C42.0162 6.47104 41.604 3.53166 40.3391 2.23722C38.7349 0.53831 36.9367 0.529908 36.112 0.430441C30.2085 -0.000976592 21.3526 -0.000976562 21.3526 -0.000976562L21.3529 -0.000853091ZM16.9389 8.89914L28.1366 14.7795L16.9389 20.9124V8.89914Z" fill="#E52D27"/>
</g>
<defs>
<clipPath id="clip0_337_2332">
<rect width="42.1875" height="30" fill="white" transform="translate(0.25)"/>
</clipPath>
</defs>
</svg>
