<svg width="50" height="50" viewBox="0 0 50 50" fill="none" xmlns="http://www.w3.org/2000/svg">
<g id="Group 8">
<circle id="Ellipse 7" cx="25" cy="25" r="25" fill="#0500FF"/>
<g id="Vector">
<path fill-rule="evenodd" clip-rule="evenodd" d="M25.703 41.9836C24.8772 41.9777 24.2524 42.0112 23.6329 41.93C23.1387 41.8659 22.6482 41.7682 22.1554 41.6892C21.5539 41.5931 20.9696 41.4082 20.3861 41.2442C19.9286 41.1153 19.4793 40.9178 19.0331 40.7314C18.7593 40.6174 18.499 40.4482 18.196 40.3953C18.0873 40.3766 17.989 40.2812 17.8908 40.2127C17.5098 39.9466 17.0838 39.7662 16.6915 39.518C16.1875 39.1997 15.7067 38.8501 15.235 38.4871C14.8944 38.2248 14.5637 37.9475 14.2487 37.6501C13.9787 37.3959 13.6877 37.1634 13.4447 36.8801C13.2249 36.6237 12.9961 36.3763 12.7816 36.1147C12.3714 35.6145 11.9791 35.1002 11.6041 34.5725C11.4788 34.3958 11.3791 34.1998 11.2718 34.0098C11.2216 33.9211 11.2201 33.8644 11.3221 33.7817C11.8269 33.3732 12.2851 32.9059 12.7981 32.5064C12.8731 32.4482 12.8596 32.3863 12.8236 32.2999C12.6241 31.8214 12.4419 31.3346 12.2394 30.8576C12.1089 30.5498 11.9964 30.2337 11.8531 29.9296C11.7759 29.7656 11.6769 29.7739 11.5861 29.8007C11.2726 29.8931 10.9501 29.8126 10.6328 29.8804C10.3583 29.9393 10.0666 29.905 9.7853 29.9401C9.5573 29.9691 9.47929 29.8245 9.43504 29.6561C9.35929 29.3691 9.32404 29.071 9.24454 28.7855C9.11328 28.3137 9.09678 27.8247 9.01503 27.3455C8.96928 27.0771 9.02028 27.0004 9.27529 26.9303C9.86105 26.7693 10.4566 26.6471 11.0356 26.454C11.1526 26.4152 11.1706 26.3921 11.1773 26.255C11.2103 25.5775 11.2786 24.9022 11.3266 24.2254C11.3408 24.0271 11.3288 23.8273 11.3296 23.6283C11.3296 23.5791 11.3221 23.553 11.2628 23.5299C10.6381 23.2817 10.0246 22.997 9.38854 22.7846C9.14403 22.7026 9.16878 22.5587 9.19804 22.4164C9.35179 21.674 9.51304 20.9316 9.7703 20.2198C9.8348 20.0409 9.8843 19.8583 9.94806 19.6801C10.0186 19.4834 10.1611 19.3798 10.3726 19.4245C10.8421 19.5244 11.3123 19.6227 11.7796 19.7338C11.9041 19.7636 12.0309 19.7599 12.1561 19.8016C12.3106 19.8531 12.3796 19.7182 12.4426 19.5967C12.7044 19.0928 12.9474 18.577 13.2406 18.0933C13.3606 17.895 13.4364 17.6699 13.5872 17.488C13.6592 17.4008 13.6704 17.3039 13.5609 17.2055C13.1566 16.844 12.8379 16.3961 12.4389 16.0264C12.1681 15.7752 12.1921 15.6298 12.4254 15.3123C12.7749 14.836 13.1716 14.4037 13.5624 13.9677C13.8159 13.6844 14.1114 13.44 14.3979 13.1903C14.5247 13.0792 14.6387 13.1925 14.7384 13.2663C15.1974 13.6069 15.655 13.952 16.1095 14.2986C16.2167 14.3806 16.3052 14.3873 16.4155 14.3001C16.564 14.1823 16.7065 14.0512 16.8602 13.9453C17.1535 13.7441 17.4333 13.5257 17.7153 13.3095C17.9283 13.1463 18.1458 12.9913 18.3588 12.828C18.4383 12.7669 18.4803 12.6991 18.4398 12.5783C18.2673 12.064 18.1143 11.5423 17.9403 11.0287C17.8773 10.8416 17.9043 10.7395 18.0955 10.6694C18.2913 10.5979 18.4728 10.4853 18.6655 10.4026C18.9116 10.296 19.1606 10.1969 19.4103 10.1022C19.6916 9.99564 19.9788 9.90396 20.2593 9.79439C20.5488 9.68109 20.8474 9.61252 21.1526 9.57525C21.3326 9.55289 21.3491 9.74072 21.4009 9.83985C21.6581 10.331 21.8944 10.8342 22.1351 11.3351C22.2079 11.4864 22.3159 11.5147 22.4696 11.4849C23.0614 11.3701 23.6539 11.2642 24.2472 11.1569C24.4482 11.1204 24.6425 11.0533 24.851 11.0541C24.9117 11.0541 24.992 11.025 24.9965 10.9124C25.0182 10.299 25.1892 9.70345 25.1982 9.08778C25.1997 9.00505 25.2672 9.00505 25.328 9.00505C26.0202 9.00728 26.7148 8.97225 27.4033 9.0602C27.782 9.10865 28.1593 9.18766 28.5381 9.24356C28.6446 9.25922 28.6888 9.34344 28.7031 9.4627C28.7668 9.98371 28.7526 10.507 28.7406 11.0287C28.7353 11.2784 28.7946 11.3992 29.0526 11.464C29.7988 11.6511 30.5196 11.9336 31.2651 12.1296C31.3634 12.1557 31.3986 12.1624 31.4616 12.07C31.7617 11.6347 32.0857 11.2173 32.3362 10.7462C32.4344 10.5614 32.5934 10.5442 32.8049 10.6448C33.4717 10.9639 34.1032 11.3507 34.7302 11.7413C35.1082 11.9761 35.4443 12.2817 35.8013 12.5522C36.432 13.0315 37.0185 13.5704 37.5593 14.1473C38.0768 14.6989 38.5568 15.2952 38.9993 15.919C39.7966 17.0423 40.4424 18.2535 40.9434 19.5415C41.1459 20.061 41.3282 20.594 41.4602 21.147C41.6237 21.8328 41.7939 22.5155 41.8929 23.2132C42.0174 24.0927 41.9874 24.9812 41.9987 25.8674C42.0084 26.6277 41.9649 27.385 41.8427 28.1296C41.7497 28.6953 41.6327 29.2618 41.4767 29.8178C41.3514 30.265 41.2187 30.7108 41.0597 31.1446C40.8631 31.679 40.6501 32.2082 40.3929 32.718C39.9159 33.6639 39.3826 34.5703 38.7488 35.414C38.5831 35.6354 38.3761 35.8158 38.2186 36.0356C37.8923 36.4896 37.5256 36.898 37.1183 37.2722C36.513 37.829 35.9205 38.3992 35.235 38.8554C34.986 39.0208 34.746 39.2042 34.4992 39.3756C34.0455 39.6909 33.5542 39.9339 33.0809 40.2112C32.5499 40.5227 31.9732 40.7419 31.4024 40.9573C30.8459 41.1675 30.2714 41.3337 29.6901 41.4761C29.1568 41.6065 28.6206 41.7332 28.0835 41.8279C27.2308 41.9777 26.3645 42.0284 25.7 41.9851L25.703 41.9836ZM26.9608 39.2675C27.5923 39.237 28.2006 39.0976 28.8133 38.9687C29.5558 38.8121 30.2736 38.5647 30.9674 38.2635C31.6746 37.9564 32.3527 37.5845 33.0014 37.15C33.759 36.6424 34.4692 36.0819 35.1255 35.4446C35.5148 35.0667 35.865 34.6537 36.2123 34.2348C36.7575 33.5767 37.2233 32.8582 37.6261 32.1053C38.0431 31.3264 38.3731 30.4998 38.6303 29.6449C39.0233 28.3383 39.2184 26.9974 39.2244 25.6356C39.2266 25.04 39.1914 24.4378 39.1029 23.8415C39.0091 23.2094 38.9071 22.5811 38.7293 21.9684C38.5268 21.2693 38.2853 20.5872 37.9876 19.9209C37.4761 18.7775 36.8213 17.7362 36.0353 16.7814C35.6325 16.2925 35.1787 15.852 34.719 15.4182C34.2975 15.0209 33.8422 14.6728 33.3772 14.3366C32.9189 14.0057 32.4284 13.7314 31.9357 13.4564C31.3454 13.1269 30.7304 12.8571 30.1011 12.6387C29.5813 12.4583 29.0406 12.3279 28.4991 12.2064C27.5735 11.9984 26.6413 11.9366 25.7037 11.8918C25.4292 11.8784 25.1517 11.9284 24.8757 11.9336C24.2607 11.9448 23.6539 12.0417 23.0524 12.1512C22.2709 12.2943 21.5066 12.5299 20.7679 12.8258C19.9443 13.1552 19.1501 13.56 18.4053 14.0534C17.7753 14.4708 17.1775 14.9307 16.6165 15.4487C16.0787 15.9459 15.583 16.4758 15.1224 17.0475C14.4722 17.8547 13.9352 18.7365 13.4844 19.6727C13.1229 20.4248 12.8431 21.2111 12.6234 22.0228C12.3054 23.1953 12.1704 24.3908 12.1284 25.6021C12.1186 25.889 12.1764 26.1693 12.1824 26.4562C12.1959 27.054 12.2821 27.6451 12.3984 28.2317C12.5289 28.8898 12.6969 29.5346 12.9151 30.1704C13.2264 31.079 13.6284 31.9414 14.1144 32.7583C14.6364 33.6348 15.271 34.4249 15.9625 35.1673C16.4147 35.6533 16.9022 36.102 17.4198 36.5037C17.8683 36.8518 18.3558 37.1537 18.8478 37.4459C19.3248 37.7291 19.8078 38.0094 20.3066 38.2307C21.0694 38.5691 21.8659 38.8367 22.6849 39.0067C23.6479 39.2064 24.6177 39.3518 25.7105 39.3562C26.0577 39.3525 26.5085 39.2914 26.9608 39.2698V39.2675Z" fill="white"/>
<path fill-rule="evenodd" clip-rule="evenodd" d="M33.777 33.6237C33.777 34.1529 33.7725 34.6821 33.78 35.2105C33.7822 35.3581 33.7567 35.4148 33.5947 35.4133C32.7554 35.4051 31.9162 35.4058 31.0769 35.4163C30.8841 35.4185 30.8286 35.3544 30.8301 35.1606C30.8391 34.1268 30.8264 33.093 30.8444 32.0591C30.8481 31.8258 30.7686 31.7968 30.5804 31.7983C29.6241 31.805 28.6678 31.7953 27.7115 31.8065C27.5248 31.8087 27.4723 31.752 27.4753 31.5665C27.4843 30.9977 27.4858 30.4283 27.4745 29.8596C27.4715 29.6986 27.5293 29.6822 27.6605 29.6829C28.4848 29.6881 29.3083 29.6799 30.1326 29.6904C30.3179 29.6926 30.3801 29.6598 30.3771 29.4504C30.3644 28.4888 30.3779 27.5266 30.3674 26.5651C30.3651 26.3377 30.4236 26.2647 30.6516 26.2684C31.4594 26.2818 32.2687 26.2788 33.0764 26.2662C33.2624 26.2632 33.3149 26.3183 33.3134 26.5062C33.3059 27.4759 33.3157 28.4464 33.3052 29.4161C33.3029 29.6225 33.3382 29.6963 33.5617 29.6926C34.533 29.6777 35.505 29.6889 36.477 29.6829C36.6195 29.6822 36.6773 29.7053 36.6735 29.873C36.6623 30.4499 36.6615 31.0275 36.6735 31.6045C36.6773 31.7841 36.6165 31.8079 36.4635 31.8065C35.6475 31.799 34.8307 31.8087 34.0147 31.7983C33.8295 31.796 33.7635 31.8288 33.7702 32.039C33.7875 32.5675 33.7762 33.0967 33.7762 33.6259L33.777 33.6237Z" fill="white"/>
<path fill-rule="evenodd" clip-rule="evenodd" d="M17.9148 25.283C17.9148 21.9967 17.917 18.7097 17.9095 15.4234C17.9095 15.2035 17.9635 15.1521 18.1743 15.1521C21.0821 15.1595 23.9899 15.1416 26.897 15.1677C27.6643 15.1744 28.4233 15.3406 29.1568 15.6082C29.6841 15.8005 30.1754 16.051 30.6434 16.3677C31.2209 16.7591 31.6619 17.2681 32.0129 17.8764C32.4509 18.6344 32.6369 19.4565 32.7119 20.3301C32.8274 21.6755 32.5762 22.9374 32.0017 24.1359C31.7084 24.7486 31.2651 25.2331 30.7349 25.652C30.0966 26.1566 29.4073 26.5539 28.6588 26.8386C28.1668 27.0257 27.6523 27.139 27.1333 27.2359C25.9527 27.4565 24.7625 27.3522 23.5759 27.3701C23.3839 27.373 23.3187 27.4006 23.3202 27.6235C23.3299 30.1242 23.3239 32.6256 23.3307 35.1263C23.3307 35.3551 23.3044 35.423 23.0449 35.4192C21.4129 35.3984 19.7801 35.4043 18.1473 35.414C17.9515 35.4148 17.9095 35.3648 17.9103 35.1666C17.917 31.872 17.9148 28.5775 17.9148 25.283ZM23.3232 23.2005C23.3209 23.3458 23.3517 23.3913 23.5002 23.3868C23.9472 23.3742 24.3942 23.3771 24.8412 23.3436C25.154 23.3198 25.466 23.287 25.7562 23.1833C26.9608 22.754 27.4888 21.8797 27.2833 20.6096C27.1213 19.6063 26.372 19.1644 25.433 19.1032C24.8142 19.063 24.1917 19.0995 23.5707 19.1017C23.3554 19.1017 23.2339 19.2441 23.2962 19.4595C23.3239 19.5564 23.3247 19.6466 23.3247 19.7398C23.3277 20.3003 23.3262 20.8615 23.3262 21.4221C23.3262 22.0146 23.3307 22.6079 23.3224 23.2005H23.3232Z" fill="white"/>
<path fill-rule="evenodd" clip-rule="evenodd" d="M29.9053 32.1829C30.0128 32.2486 30.0504 32.3582 30.0883 32.4684L30.0912 32.4769L30.0956 32.4898C30.0985 32.4981 30.1014 32.5063 30.1043 32.5145L30.1056 32.5153C30.1074 32.5174 30.1092 32.5194 30.111 32.5215C30.1406 32.5554 30.1696 32.5886 30.2226 32.569C30.2288 32.5666 30.235 32.5642 30.2412 32.5617C30.2462 32.5596 30.2512 32.5576 30.2563 32.5555L30.2567 32.5553C30.2811 32.5452 30.3055 32.5351 30.3306 32.5295C30.4731 32.4982 30.6194 32.522 30.6524 32.677C30.6743 32.7814 30.5988 32.7959 30.5171 32.8116C30.4787 32.8189 30.4388 32.8266 30.4071 32.844C30.5729 33.0281 30.5804 33.2226 30.5279 33.4492C30.4919 33.6028 30.4266 33.6296 30.2969 33.652C30.1324 33.6807 29.9795 33.6402 29.827 33.5998C29.7179 33.5709 29.6091 33.5421 29.4966 33.5387L29.4952 33.5391C29.4489 33.6299 29.5052 33.6436 29.5559 33.6559C29.5695 33.6592 29.5826 33.6623 29.5933 33.6669C29.5998 33.6696 29.6062 33.6722 29.6126 33.6749C29.7133 33.7165 29.812 33.7573 29.8656 33.8666C29.9585 33.8689 29.9842 33.9337 30.0099 33.9987C30.0187 34.0208 30.0274 34.043 30.0389 34.0627L30.0387 34.0632C30.075 34.1009 30.1031 34.1431 30.1034 34.1991L30.1041 34.1998C30.1057 34.2013 30.1073 34.2028 30.1089 34.2044C30.1106 34.206 30.1123 34.2078 30.114 34.2095C30.1168 34.2124 30.1195 34.2153 30.1223 34.2182C30.1481 34.2454 30.174 34.2728 30.2196 34.2565C30.2232 34.2552 30.2269 34.2539 30.2305 34.2525L30.2351 34.2508C30.2377 34.2498 30.2402 34.2489 30.2428 34.2479L30.2488 34.2456L30.2598 34.2413L30.26 34.2412C30.2826 34.2324 30.3053 34.2235 30.3284 34.217C30.4611 34.1804 30.5984 34.1961 30.6426 34.3377C30.681 34.4605 30.6066 34.4754 30.5268 34.4914C30.485 34.4998 30.4417 34.5084 30.4124 34.533C30.5721 34.7111 30.5744 34.9034 30.5271 35.1308C30.4911 35.3074 30.4116 35.329 30.2759 35.3305C30.046 35.3338 29.8195 35.3025 29.5926 35.2713C29.3486 35.2376 29.104 35.2039 28.8538 35.2128C28.7452 35.2168 28.6426 35.2478 28.541 35.2786C28.3963 35.3224 28.2534 35.3657 28.097 35.3298C28.0601 35.3214 28.017 35.3243 27.974 35.3271C27.8833 35.3332 27.7933 35.3392 27.7633 35.2396C27.757 35.2184 27.7503 35.1971 27.7435 35.1755C27.6931 35.0145 27.6392 34.8422 27.7205 34.6694C27.7356 34.6376 27.7576 34.6091 27.7793 34.581C27.7901 34.567 27.8008 34.5531 27.8105 34.539C27.7842 34.5069 27.7368 34.4956 27.6916 34.4847C27.6147 34.4662 27.5439 34.4493 27.593 34.3347C27.668 34.1603 27.8345 34.1633 27.9905 34.2565C28.0132 34.2512 28.0338 34.257 28.0538 34.2667C28.0976 34.2588 28.1176 34.2161 28.1384 34.1717L28.1412 34.1657C28.1426 34.1627 28.1441 34.1597 28.1455 34.1567C28.1476 34.1524 28.1497 34.1481 28.1518 34.1439C28.1603 34.1271 28.1687 34.1101 28.1771 34.0932L28.1772 34.0929C28.2366 33.9724 28.2963 33.8515 28.4106 33.7712L28.4116 33.7719L28.4113 33.7712C28.4211 33.7653 28.431 33.7593 28.4408 33.7534C28.4543 33.7453 28.4679 33.7372 28.4814 33.7291L28.4818 33.7289L28.4992 33.7185L28.5116 33.7111L28.5213 33.7053C28.5314 33.6992 28.5415 33.6931 28.5516 33.687C28.6037 33.634 28.6684 33.6317 28.7329 33.6294C28.75 33.6288 28.7672 33.6282 28.7841 33.6266C28.7826 33.6118 28.7809 33.5971 28.7792 33.5824L28.7792 33.5823C28.7775 33.5676 28.7758 33.5528 28.7743 33.5379C28.6619 33.5203 28.5583 33.5587 28.4542 33.5971C28.3381 33.6401 28.2215 33.6832 28.0918 33.649C28.0554 33.6393 28.0124 33.6421 27.9697 33.6448C27.8876 33.6501 27.8066 33.6554 27.776 33.5715L27.7739 33.5655C27.7107 33.3911 27.6412 33.1995 27.7198 33.0043C27.7355 32.9652 27.7593 32.9293 27.7825 32.8945L27.7825 32.8944L27.7827 32.8942C27.7926 32.8793 27.8023 32.8647 27.8113 32.85C27.7843 32.8223 27.7392 32.8126 27.6959 32.8033C27.6177 32.7864 27.5453 32.7707 27.596 32.6532C27.6695 32.4825 27.836 32.481 27.992 32.5749C28.0048 32.5829 28.0176 32.5895 28.0304 32.5947C28.0254 32.5884 28.0202 32.5831 28.0147 32.5795C28.102 32.5916 28.1268 32.5273 28.1509 32.4649C28.1584 32.4454 28.1658 32.4262 28.1751 32.4095C28.2838 32.2119 28.4076 32.0375 28.6453 32.0002V31.9995C28.9551 31.8355 29.2678 31.8504 29.5828 31.9839L29.5831 31.9846C29.7141 32.0107 29.8219 32.0762 29.9058 32.1824L29.9053 32.1829ZM28.6685 32.0565L28.6685 32.0549L28.6684 32.0532C28.8326 32.0815 28.9978 32.0784 29.1629 32.0752C29.2843 32.0729 29.4056 32.0706 29.5266 32.0807C29.53 32.079 29.5333 32.0772 29.5366 32.0753C29.6066 32.1879 29.7136 32.2338 29.8434 32.2379C29.8415 32.2431 29.8399 32.2486 29.8386 32.2544C29.8444 32.275 29.8494 32.2961 29.8544 32.3171C29.8764 32.4099 29.8984 32.5026 29.9861 32.5506C29.9502 32.5622 29.9147 32.5532 29.8791 32.5441C29.8589 32.5389 29.8386 32.5338 29.8183 32.5324C29.7081 32.5253 29.5995 32.4996 29.491 32.4739C29.3062 32.4303 29.1216 32.3866 28.9288 32.4341C28.7857 32.4693 28.6412 32.4955 28.4968 32.5217L28.4967 32.5217C28.4058 32.5382 28.3149 32.5547 28.2246 32.5734L28.2239 32.5738C28.3181 32.4873 28.3975 32.387 28.477 32.2867C28.5386 32.2089 28.6002 32.1312 28.6686 32.0599C28.6686 32.0588 28.6686 32.0576 28.6685 32.0565ZM29.9735 34.2389C29.9399 34.2169 29.9379 34.1759 29.9559 34.1231C29.9541 34.1229 29.9523 34.1226 29.9505 34.1223C29.9497 34.1221 29.9488 34.122 29.948 34.1218L29.9463 34.1214L29.9447 34.1211C29.9434 34.1208 29.942 34.1204 29.9406 34.1201C29.8703 34.0631 29.8137 33.9975 29.8001 33.9053L29.7714 33.8964C29.4795 33.8061 29.1878 33.7159 28.8771 33.7317L28.8736 33.7304C28.8333 33.7847 28.771 33.7891 28.7084 33.7936L28.6995 33.7942C28.6955 33.7945 28.6914 33.7948 28.6874 33.7951C28.6798 33.7957 28.6723 33.7964 28.6648 33.7973C28.6548 33.7946 28.6448 33.7918 28.6352 33.7886C28.606 33.8611 28.5534 33.8907 28.4761 33.8739C28.4764 33.8755 28.4766 33.8771 28.4769 33.8787L28.4773 33.8815C28.4698 33.8976 28.4623 33.9138 28.4549 33.93C28.3955 34.0588 28.3361 34.1877 28.2374 34.2893C28.7328 34.1083 29.2342 34.0474 29.7501 34.2058C29.7616 34.2093 29.7732 34.2133 29.785 34.2172C29.8454 34.2376 29.9093 34.2592 29.9735 34.2389ZM28.0888 33.2905H27.9808C27.9163 33.2905 27.8315 33.283 27.8248 33.2182C27.8165 33.131 27.902 33.1131 27.9755 33.1086C28.0063 33.1064 28.0385 33.1041 28.0685 33.1094C28.0968 33.1141 28.1311 33.1113 28.1656 33.1086C28.2513 33.1017 28.3386 33.0948 28.3386 33.201C28.3386 33.3027 28.2644 33.2945 28.1919 33.2865C28.1533 33.2823 28.1151 33.278 28.0888 33.2905ZM30.0795 33.2899C30.0887 33.2899 30.0985 33.2898 30.1092 33.2898C30.1199 33.2898 30.1314 33.2897 30.1439 33.2897H30.1454C30.1683 33.2813 30.203 33.2842 30.2395 33.2871C30.3128 33.2931 30.3929 33.2996 30.3959 33.2159C30.4002 33.0994 30.3066 33.1043 30.2157 33.109C30.1816 33.1108 30.1479 33.1125 30.1199 33.1079C30.0824 33.1019 30.0426 33.1049 30.0051 33.1094C29.9413 33.1168 29.8723 33.1347 29.8776 33.2144C29.8814 33.28 29.9466 33.2882 30.0014 33.2897C30.0248 33.2902 30.0486 33.2901 30.0795 33.2899ZM30.1296 34.7872C30.1591 34.7953 30.196 34.7938 30.2328 34.7923C30.3138 34.7889 30.3941 34.7856 30.3936 34.8856C30.393 34.9988 30.2935 34.9861 30.2046 34.9747C30.1776 34.9713 30.1516 34.9679 30.1296 34.9683C30.1113 34.9686 30.09 34.9715 30.0678 34.9744C29.9844 34.9856 29.8878 34.9986 29.8866 34.8856C29.8861 34.786 29.9627 34.7888 30.0398 34.7917C30.0717 34.7928 30.1038 34.794 30.1304 34.7879L30.1296 34.7872ZM27.9872 34.969C28.0198 34.9667 28.0512 34.9645 28.0738 34.9713H28.2097C28.2717 34.9713 28.3468 34.9713 28.3491 34.8908C28.352 34.7973 28.2726 34.794 28.2041 34.7911L28.1983 34.7909C28.1683 34.7894 28.1376 34.7894 28.1068 34.7916C28.0835 34.7933 28.0567 34.7925 28.0292 34.7917C27.9363 34.7888 27.8354 34.7857 27.833 34.8788C27.8304 34.98 27.9122 34.9743 27.9872 34.969Z" fill="white"/>
<path d="M29.9058 32.1824L29.9061 32.1821V32.1829L29.9058 32.1824Z" fill="white"/>
<path d="M28.0147 32.5795C28.0119 32.5791 28.009 32.5786 28.0061 32.5781C28.0016 32.5772 27.9969 32.5762 27.992 32.5749C28.0003 32.5729 28.0077 32.5748 28.0147 32.5795Z" fill="white"/>
<path fill-rule="evenodd" clip-rule="evenodd" d="M34.3837 26.0858C34.725 25.9613 35.0677 25.9047 35.4128 26.0709C35.6565 26.1246 35.8125 26.287 35.9115 26.5129L35.9119 26.5139C35.9515 26.6044 35.9877 26.6872 36.1073 26.6493C36.1064 26.6506 36.1055 26.652 36.1046 26.6533C36.106 26.652 36.1074 26.6507 36.1088 26.6493L36.1073 26.6485C36.1157 26.6444 36.1239 26.6396 36.1321 26.6349C36.1504 26.6244 36.1686 26.6139 36.1883 26.6098C36.3248 26.5807 36.459 26.6165 36.4823 26.7618C36.4985 26.8623 36.4258 26.8777 36.3447 26.8949C36.3097 26.9023 36.2732 26.91 36.2415 26.9251C36.4215 27.1204 36.4133 27.3455 36.3518 27.5832C36.333 27.6548 36.3038 27.7159 36.2423 27.7152C36.1796 27.7139 36.1161 27.721 36.0525 27.728C35.891 27.746 35.729 27.764 35.5778 27.6458C35.5257 27.6051 35.4638 27.6124 35.401 27.6198C35.3615 27.6245 35.3217 27.6292 35.2837 27.622L35.2826 27.6227L35.283 27.6227C35.2824 27.6273 35.2818 27.6319 35.2812 27.6365C35.2807 27.6399 35.2803 27.6432 35.2798 27.6465C35.2789 27.6531 35.2779 27.6597 35.277 27.6663C35.275 27.6806 35.2729 27.6949 35.2711 27.7092C35.4536 27.7155 35.5791 27.8267 35.7047 27.9381C35.7287 27.9594 35.7528 27.9808 35.7773 28.0014L35.7771 28.002L35.7781 28.0032C35.8496 28.0853 35.9206 28.167 35.9348 28.2831L35.9345 28.2834C35.9351 28.2838 35.9357 28.2842 35.9363 28.2846L35.9348 28.2831C35.943 28.2901 35.9506 28.2983 35.9582 28.3064C35.9851 28.3354 36.0116 28.3639 36.0638 28.3383C36.105 28.3182 36.1493 28.301 36.1935 28.2921C36.321 28.266 36.4485 28.3003 36.4778 28.4307C36.504 28.5494 36.4277 28.5641 36.3444 28.5802C36.3084 28.5872 36.271 28.5944 36.24 28.6103C36.4328 28.8041 36.4065 29.0337 36.3503 29.2722C36.3323 29.3475 36.2918 29.3974 36.2325 29.3982C36.1765 29.3988 36.1198 29.4051 36.063 29.4114C35.9011 29.4294 35.7388 29.4474 35.5905 29.3326C35.5545 29.3049 35.5173 29.3059 35.4796 29.3069C35.4726 29.3071 35.4656 29.3073 35.4585 29.3073C35.3587 29.3073 35.258 29.3025 35.1572 29.2978C34.9216 29.2866 34.686 29.2755 34.4632 29.3251C34.2315 29.3766 34.0072 29.4101 33.774 29.4146C33.7538 29.4146 33.7333 29.4082 33.7127 29.4018C33.7034 29.3989 33.694 29.396 33.6847 29.3937L33.6841 29.3927L33.684 29.393C33.5658 29.3754 33.5719 29.2985 33.578 29.2219C33.5796 29.2014 33.5812 29.1808 33.5805 29.1614C33.4592 28.9622 33.5162 28.7807 33.6457 28.6141C33.616 28.5915 33.5735 28.582 33.5325 28.5728C33.4505 28.5544 33.3747 28.5374 33.4207 28.4195C33.4807 28.266 33.6382 28.2391 33.7897 28.3316L33.7894 28.3321L33.7904 28.3326L33.7912 28.3331C33.8042 28.3273 33.8151 28.3305 33.8232 28.3414C33.9293 28.3666 33.9575 28.2964 33.9851 28.2277C33.9921 28.2103 33.999 28.1929 34.0072 28.1773C34.113 27.9768 34.2412 27.8053 34.4767 27.7606L34.4777 27.7609L34.4898 27.7552C34.4978 27.7514 34.5058 27.7476 34.5138 27.7437C34.5236 27.7391 34.5333 27.7344 34.5431 27.7297C34.5652 27.7191 34.5874 27.7085 34.6095 27.698C34.6227 27.6819 34.6371 27.6703 34.6525 27.6618C34.6468 27.6606 34.6411 27.6594 34.6354 27.6582C34.5573 27.6415 34.4792 27.6248 34.398 27.6399C34.3787 27.6385 34.3628 27.6349 34.3502 27.6296C34.3557 27.6363 34.3568 27.6429 34.353 27.6496C34.347 27.66 34.3417 27.6652 34.3357 27.6652C34.1406 27.78 33.9333 27.7485 33.7303 27.7177L33.7079 27.7143L33.6934 27.7122C33.6832 27.7106 33.6731 27.7092 33.663 27.7077C33.558 27.6928 33.4814 27.259 33.5452 27.1077C33.5622 27.0676 33.5845 27.0297 33.6067 26.992L33.6068 26.9918L33.6068 26.9917C33.6159 26.9762 33.625 26.9608 33.6337 26.9452C33.6316 26.9411 33.63 26.9361 33.6284 26.9312C33.6254 26.9218 33.6224 26.9126 33.6165 26.9102C33.5943 26.9002 33.5672 26.8959 33.5401 26.8916C33.4682 26.8801 33.396 26.8687 33.4139 26.7507C33.4349 26.609 33.6172 26.5733 33.8235 26.6597C33.8241 26.6612 33.8249 26.6625 33.8258 26.6637C33.8255 26.6624 33.8252 26.6611 33.825 26.6597C33.9305 26.6881 33.9625 26.6091 33.9899 26.5413L33.9899 26.5412C33.9927 26.5343 33.9955 26.5276 33.9982 26.5211C34.079 26.3285 34.2151 26.1945 34.3833 26.0873L34.3837 26.0865V26.0858ZM33.5821 29.1563C33.5824 29.1582 33.5827 29.1602 33.5831 29.1622L33.5813 29.1615C33.5816 29.1597 33.5818 29.158 33.5821 29.1563ZM35.8184 28.3205C35.7205 28.2764 35.7105 28.1807 35.7278 28.0692V28.0685L35.7347 28.0591C35.7267 28.0627 35.7175 28.0649 35.7068 28.0655C35.6438 28.0295 35.5764 28.0024 35.5089 27.9753C35.4 27.9314 35.2911 27.8876 35.2013 27.8065C35.1974 27.8079 35.1934 27.8092 35.1894 27.8106L35.1848 27.8121L35.1807 27.8134C35.177 27.8147 35.1734 27.816 35.1697 27.8173C35.0915 27.8129 35.013 27.8231 34.9345 27.8334C34.801 27.8509 34.6672 27.8685 34.5341 27.8137C34.5354 27.8187 34.5363 27.8241 34.5367 27.8299C34.3918 27.9427 34.2802 28.0869 34.1685 28.2311C34.1327 28.2773 34.097 28.3235 34.0601 28.3687C34.5763 28.1892 35.0978 28.145 35.6303 28.2936C35.643 28.2972 35.6559 28.3015 35.6688 28.3058C35.7176 28.3221 35.7676 28.3388 35.8184 28.3205ZM35.679 26.6195C35.134 26.4676 34.5977 26.4902 34.0678 26.6809C34.1779 26.5513 34.2752 26.4117 34.3727 26.2718C34.3898 26.2473 34.4068 26.2229 34.4239 26.1985C34.4272 26.1998 34.4306 26.2012 34.4341 26.2024C34.4358 26.2031 34.4375 26.2037 34.4392 26.2043C34.7437 26.1486 35.0496 26.1454 35.357 26.1639C35.361 26.1834 35.3717 26.2 35.3895 26.2095C35.5695 26.3064 35.7075 26.4421 35.7923 26.6351C35.7944 26.6399 35.7969 26.6445 35.7997 26.6489C35.7589 26.6413 35.7186 26.6306 35.679 26.6195ZM33.6451 27.2378C33.6459 27.242 33.6462 27.2463 33.6457 27.2508L33.6466 27.2512C33.7011 27.4066 33.8043 27.3896 33.9074 27.3727C33.9576 27.3644 34.0077 27.3561 34.0522 27.3678C34.1392 27.3909 34.197 27.3417 34.1835 27.2366C34.0048 27.1755 33.8276 27.1529 33.6525 27.2475C33.6513 27.2459 33.6501 27.2444 33.6489 27.2429C33.6476 27.2412 33.6463 27.2395 33.6451 27.2378ZM33.7306 28.8737C33.6004 28.9737 33.6604 29.0264 33.777 29.0643H33.7777C33.7979 29.0635 33.818 29.0627 33.8382 29.062C33.9185 29.0589 33.9989 29.0558 34.0792 29.0546C34.131 29.0538 34.176 29.0337 34.182 28.9808C34.1895 28.913 34.1407 28.8802 34.0807 28.8779C33.9993 28.8748 33.9179 28.8742 33.8365 28.8736C33.8022 28.8734 33.7679 28.8732 33.7335 28.8727L33.7321 28.8697L33.7312 28.8727L33.7306 28.8737ZM35.958 29.0553C35.9333 29.0484 35.9002 29.0514 35.8665 29.0545C35.7948 29.061 35.7203 29.0677 35.7173 28.98C35.7139 28.8675 35.8058 28.8718 35.893 28.8758C35.9213 28.8771 35.9491 28.8784 35.973 28.8757C35.9956 28.8729 36.0191 28.8739 36.0421 28.8749C36.0497 28.8752 36.0571 28.8755 36.0645 28.8757L36.0674 28.8758C36.1449 28.878 36.2407 28.8807 36.2325 28.983C36.2267 29.0565 36.1536 29.0558 36.0902 29.0553C36.0803 29.0552 36.0707 29.0551 36.0615 29.0553H35.958ZM35.9219 27.3719C35.9369 27.3721 35.954 27.3723 35.9745 27.3723V27.373C35.9996 27.3599 36.0389 27.3642 36.0791 27.3687C36.1505 27.3765 36.2246 27.3847 36.2265 27.2955C36.2287 27.1796 36.1381 27.1858 36.0487 27.192C36.0122 27.1945 35.9758 27.197 35.946 27.1912C35.9231 27.186 35.8994 27.1879 35.8757 27.1897C35.8684 27.1903 35.861 27.1908 35.8538 27.1912C35.781 27.1949 35.6978 27.2113 35.7068 27.3C35.7135 27.3678 35.7938 27.3753 35.8583 27.3723C35.8775 27.3714 35.8967 27.3716 35.9219 27.3719Z" fill="white"/>
</g>
</g>
</svg>
