<svg width="31" height="24" viewBox="0 0 31 24" fill="none" xmlns="http://www.w3.org/2000/svg">
<path id="tv_options_input_settings" d="M2.93587 24C2.27171 24 1.69968 23.7532 1.21979 23.2596C0.73993 22.766 0.5 22.1777 0.5 21.4945V2.50547C0.5 1.82233 0.73993 1.23396 1.21979 0.740358C1.69968 0.246787 2.27171 0 2.93587 0H28.0641C28.7283 0 29.3003 0.246787 29.7802 0.740358C30.2601 1.23396 30.5 1.82233 30.5 2.50547V21.4945C30.5 22.1777 30.2601 22.766 29.7802 23.2596C29.3003 23.7532 28.7283 24 28.0641 24H2.93587ZM2.93587 22.5495H28.0641C28.3633 22.5495 28.609 22.4506 28.8013 22.2528C28.9936 22.055 29.0898 21.8022 29.0898 21.4945V2.50547C29.0898 2.19779 28.9936 1.94504 28.8013 1.74724C28.609 1.54944 28.3633 1.45054 28.0641 1.45054H2.93587C2.63674 1.45054 2.39101 1.54944 2.19871 1.74724C2.0064 1.94504 1.91025 2.19779 1.91025 2.50547V21.4945C1.91025 21.8022 2.0064 22.055 2.19871 22.2528C2.39101 22.4506 2.63674 22.5495 2.93587 22.5495ZM14.7949 18.4923H16.2051L16.3034 17.1912C16.906 17.0659 17.4735 16.854 18.0059 16.5555C18.5383 16.257 19.005 15.874 19.406 15.4066L20.5855 16.0264L21.3889 14.8879L20.2906 13.9231C20.4658 13.2747 20.5534 12.6337 20.5534 12C20.5534 11.3663 20.4658 10.7253 20.2906 10.0769L21.3889 9.11207L20.5855 7.97362L19.406 8.59341C19.005 8.12601 18.5383 7.74304 18.0059 7.4445C17.4735 7.14596 16.906 6.93406 16.3034 6.8088L16.2051 5.5077H14.7949L14.6966 6.8088C14.094 6.93406 13.5312 7.14596 13.008 7.4445C12.4849 7.74304 12.0135 8.12601 11.594 8.59341L10.4145 7.97362L9.61112 9.11207L10.7094 10.0769C10.5342 10.7253 10.4466 11.3663 10.4466 12C10.4466 12.6337 10.5342 13.2747 10.7094 13.9231L9.61112 14.8879L10.4145 16.0264L11.594 15.4066C12.0135 15.874 12.4849 16.257 13.008 16.5555C13.5312 16.854 14.094 17.0659 14.6966 17.1912L14.7949 18.4923ZM15.5 15.789C14.4665 15.789 13.5942 15.4233 12.883 14.6918C12.1718 13.9603 11.8162 13.063 11.8162 12C11.8162 10.937 12.1718 10.0397 12.883 9.30823C13.5942 8.57674 14.4665 8.211 15.5 8.211C16.5335 8.211 17.4058 8.57674 18.117 9.30823C18.8282 10.0397 19.1838 10.937 19.1838 12C19.1838 13.063 18.8282 13.9603 18.117 14.6918C17.4058 15.4233 16.5335 15.789 15.5 15.789Z" fill="white"/>
</svg>
